<?xml version="1.0" encoding="UTF-8"?>
<svg width="266" height="266" xmlns="http://www.w3.org/2000/svg">
 <path d="m266 266h-266v-266h266zm-97-5h24 8 16 22c22 0 22 0 22-8v-41-15-40-36-8-28-8-5-11-16-40h-20-1-3-22-14-3-3-11-3-6-7-6-9-8-8-4-9-7-16-4-24-15-4-1-7-9-1-27-2c-1.87 0-2 0.67-2 20v15 1 9 6 45 9 3 28 8 8 9 95z" fill="rgba(0,0,0,0)"/>
 <path d="m115 201-1.75-1.87c-0.96-1.03-2.34-2.53-3.07-3.33-0.8-0.88-1.16-3-0.92-5.38 0.22-2.15 0.48-3.5 0.57-2.98 0.21 1.15 3.09-2.52 3.14-3.99 0.02-0.58-1.09-1.82-4.97-4.45l-1.75-1.22c-1.5-1.03-1.64-0.96-0.25 2.22l-1 14 1 4-3 1-2-6v-32l-0.3-8.53c-0.43-12.57-4.3-19.97-10.42-19.97-3.99 0-4.27-0.19-5.09-3.5-0.48-1.92-1.5-4.99-2.28-6.81-1.33-3.13-1.29-3.36 3.09-5.19h12 5l5-1 0.72-0.45c1.79-1.1-1.27-1.56-26.72-2.55l-2.92-13.25c-3.79-17.17-3.86-18-1.27-14.81 1.91 2.35 2.16 2.39 7.71 1.25 4.89-1.01 5.86-0.96 7.48 1.81v6.17c0 3.39 0.11 6.26 0.25 6.38 0.89 0.76 7.04-1.06 7.75-3.55l20 1v22 20 10.5c0 8.94 0.24 10.5 1.59 10.5 0.88 0 1.83 0.9 2.12 2s1.34 2 2.34 2 2.1-0.9 2.45-2 1.28-2 2.07-2 1.43-0.9 1.43-2c0-1.33 0.67-2 2-2 1.56 0 2-0.67 2-6v-32-11-2-9h21 7l3-1 1 1 1 7-0.25 3.75c-0.24 3.53-0.1 3.72 2.25 3.2 2.46-0.55 2.51-0.77 3-12.22 0.28-6.42 0.84-11.45 2-10.73v25h-10.55c-10.34 0-13.61 0.97-10.12 3.01 0.92 0.55 5.95 0.99 11.18 0.99 9.49 0 9.49 0 9.49 8.65 0 6.21-0.42 9.18-3 12.35l-1.25 0.01c-0.69 0.01-2-0.89-2.92-2-0.91-1.12-3.03-2.3-4.7-2.63-3.31-0.67-5.64 5.55-7.13 22.62v21l2 3v11l-2 3-1.25 0.75c-2.55 1.53-4.34 1.28-5.75-2.75v-11l0.6-0.37c0.33-0.2 0.42-1.22 0.2-2.25-0.35-1.69-0.52-1.65-1.7 0.5-0.72 1.3-1.04 2.54-0.1 3.12l-1 8-0.25 1.72c-0.17 1.19-1.27 1.77-3.54 1.89-1.82 0.09-4.07 0.84-5 1.67-0.94 0.83-2.38 1.67-3.21 1.87-0.82 0.19-1.62 1.09-1.77 1.99-0.36 2.23-5.29 2.96-13.23 1.96-3.57-0.45-6.61-0.66-7-0.1zm10-31h-2l-2.05-4.25c-1.56-3.25-2.22-7.3-2.78-17.25-0.69-12.34-0.75-12.6-1.09-5-0.64 13.98-0.25 17.98 2.01 20.9 1.4 1.8 1.85 3.34 1.37 4.65-0.45 1.21-0.3 1.95 1.54 1.95v5l4.97 0.69c5.82 0.81 6.18 0.59 6.4-4.11 0.19-4.07-0.94-4.83-8.37-2.58zm-42-60v1h10v-1z" fill="rgba(22,17,12,1)"/>
 <path d="m5 166 1.59 0.75c1.7 0.8 3.55 6.72 2.76 8.79-0.27 0.69-0.01 1.55 0.58 1.92 0.61 0.38 1.07 4.05 1.07 16.54v1l-1.25 1.75c-0.97 1.36-1.08 7.82 0.25 56.25l4.54-0.25c5.32-0.29 6.42-1.58 6.44-7.5 0.02-3.86 0.25-4.25 5.02-4.25h2l3.25 1.76c5.09 2.77 5.75 1.54 5.74-10.6 0-8.2-0.58-12.79-4.99-29.16l0.86-2.25c0.5-1.3 0.47-3.31-0.07-4.75-0.62-1.67-0.58-2.58 1.21-3l3-2 2-2 1.07 0.75c0.59 0.41 1.04 2.02 1 3.57-0.04 1.7 0.53 2.99 2.93 3.68l1.22 3.75c1.54 4.71 1.44 4.58 2.71 3.79 0.59-0.36 1.07-1.53 1.07-4.54h2l2 2 1.25 1.75c0.91 1.28 2.39 1.68 9.75 1.25l1 1-0.25 2.75c-0.17 1.83 0.33 3 3.25 4.25l5 7-2.75 2.18c-3.17 2.52-8.39 0.69-16.94-5.93-6.18-4.79-11.64-4.68-12.31 3.75v17l0.1 10c0.1 10 0.1 10 10 10s9.9 0 9.9-8h4c3.62 0 4 0.24 4 2.55 0 3.33 4.28 5.45 10.99 5.45 5.01 0 5.01 0 5.01-6 0-5.65 0.14-6 2.37-6 1.61 0 3.55-1.45 9.63-9l0.57-0.35c0.32-0.2 0.43-1.82 0.25-3.6-0.17-1.78-0.62-2.93-0.99-2.56s-1.15-0.23-1.75-1.34c-1.46-2.72 2.41-3.41 6.92 0.85h3 2c1.22 0 2.02 0.69 2.06 1.75 0.03 0.96 0.93 2.31 3.94 4.25v1l-0.43 0.69c-0.23 0.38-2.68 0.87-5.42 1.07-5.38 0.41-9.32 5.19-5.49 6.66 3.89 1.5 16.52 0.57 22.34-3.42l2.34-0.75c1.29-0.41 2.86-1.09 4.66-2.25l2-1h2c1.33 0 2-0.67 2-4h4l8 4 0.75-0.79c0.41-0.43 1.54-0.43 4.25 0.79h3l1.75 0.73c0.96 0.4 1.98 0.91 2.25 1.13 0.99 0.78-3.58 2-7.75 2.07-4.25 0.07-4.25 0.07-4.25 6.06s0 5.99 20 6.01v8h-164z" fill="rgba(22,17,12,1)"/>
 <path d="m217 256v-3l1.12-0.36c1.15-0.38-1.28-20.8-2.63-22.15-0.36-0.36-1.53-0.13-2.62 0.49-1.5 0.86-2.46 0.83-3.95-0.12-2.61-1.67-3.92-0.09-3.92 4.72 0 2.63-0.54 3.84-4 5.42l-7.75-0.02c-4.26-0.01-8.76-0.01-12.25 0.02l0.25-1.75c0.51-3.6 6.12-6.5 12.91-6.68 6.12-0.15 6.35-0.25 6.84-5.57l0.56-2.25c1.54-6.19 4.04-9.47 7.59-9.93 3.05-0.41 3.91-1.2 6.68-6.17 4.43-7.98 12.54-10.67 14.69-4.89 0.84 2.25 1.13 0.77 1.61-8.26 0.55-10.36 0.86-11.6 9.87-31.5l1-3 3-1v7 7l0.25 5.25c0.25 5.25 0.25 5.25 1.58 0.08 0.73-2.84 1.07-5.65 0.17-7.33v-4l0.25-3.25c0.29-3.83-0.44-6.89-2.25-5.75l3.25-3.69c2.31-2.62 3.4-5 3.78-8.25 0.33-2.85 0.98-4.47 2.97-4.06l1 4v9 6 2l-1 9 1 25-0.25 2.75c-0.22 2.37-0.36 2.48-1.03 0.83-0.56-1.37-1.09-1.61-1.87-0.83-1.3 1.3-0.28 3.25 1.71 3.25 0.96 0 1.44 1.09 1.45 3.25 0 1.79 0.45 3.81 1.99 5.75l2-1v41l-4.75-0.25c-4.46-0.23-4.84-0.47-6.25-3.97-2.25-5.59-16.33-5.93-17.39-0.42-0.93 4.87-3.59 6.78-15.61 7.64zm21-26v6h2v-6zm-3.94-7.85c-0.58 0.19-1.06 0.69-1.06 1.1s0.53 0.75 1.17 0.75 1.39-0.22 1.66-0.5c0.76-0.75-0.56-1.76-1.77-1.35m24.15-6.34c-1.24-1.24-1.81 0.72-0.69 2.44 0.26 0.41 0.8 0.31 1.19-0.24 0.39-0.54 0.17-1.53-0.5-2.2m-23.45-10.55c0.66-0.14 1.66 0.65 2.22 1.75 0.56 1.09 1.83 1.99 2.83 1.99 0.99 0 2.52-0.56 3.38-1.25 0.87-0.69 1.74-1.7 1.94-2.25 0.21-0.55 1.05-1 1.87-1 0.83 0 1.5-0.67 1.5-1.5 0-1.18-1.67-1.56-7.83-1.79-7.66-0.29-7.81-0.25-7.47 2 0.19 1.26 0.89 2.18 1.56 2.05m17.17-15.26c-0.6-5.5-0.6-5.5-0.77 1.25-0.09 3.71 0.02 6.75 0.23 6.75 0.22 0 0.56-0.56 0.77-1.25 0.2-0.69 0.1-3.72-0.23-6.75m1.07-11-0.35-2.25c-0.35-2.25-0.35-2.25-0.65 2.25l0.33 3.25c0.32 3.25 0.32 3.25 0.67-3.25z" fill="rgba(114,89,68,1)"/>
 <path d="m169 239-3-2-5-1-0.25-1.51c-0.14-0.82-0.81-1.5-2.75-1.49h-1v-3l1-1 1.51-0.25c0.82-0.14 1.5-0.81 1.49-2.75l0.32-2.5c0.39-3.05 3.68-3.5 3.68-0.5 0 1.1 0.49 2 1.1 2 3.27 0 4-3.48 0.9-4.29-1.2-0.31-2-1.36-2-2.62 0-1.15 0.11-2.05 0.25-2.01s0.81 0.3 1.5 0.58 1.21 0.24 1.17-0.08c-0.05-0.32-0.12-1.25-0.17-2.08-0.05-0.82-0.13-1.5-0.19-1.5-0.05 0-1.55 0.68-6.56 3l-1-3h2l3-2 1.25-1.04c0.69-0.57 2.04-1.02 4.75-0.96l2.63-2.61c1.51-1.51 2.78-4.05 3.37-9.39h2 4l2-4h2c1.33 0 2-0.67 2-4h1l3-4 1.75-0.3c0.99-0.17 1.64-1.03 1.25-3.7l-1.32-1.41c-0.72-0.78-0.94-1.68 0.32-2.59h1l17-14 3-3 0.78-1.25c0.42-0.69 1.32-1.59 3.22-2.75l3-3 1.25-4.46c0.69-2.46 1.79-4.48 2.44-4.5 1.32-0.04 2.77-1.91 2.05-2.63-0.25-0.25-1.24-0.15-2.21 0.22-1.34 0.51-1.87 0.05-2.26-1.98-0.28-1.46-0.68-2.65-0.89-2.65h-0.88c-0.27 0-0.5 0.85-0.5 1.88 0 1.22-0.89 2.06-2.5 2.36-2.12 0.41-2.5 1.03-2.5 7.76l-4 3v-1.5c0-0.82-0.59-1.5-1.31-1.5-6.08 0-5.61-11.79 0.56-13.94 1.59-0.55 2.64-1.44 2.31-1.96-0.32-0.52 0.21-1.1 1.18-1.29 1.21-0.24 1.72-1.19 1.62-3.08-0.08-1.5 0.25-2.73 1.64-2.73l2.87 2.25c1.68 1.31 3.13 3.6 3.48 5.5 0.52 2.82 1 3.25 6.65 3.25h0.96c0.53 0 1.09 1.14 1.25 2.54 0.29 2.55 0.29 2.55 3.31 0.25 1.66-1.26 4.36-3.21 6-4.33s5.51-6.29 8.6-11.5c3.08-5.2 6.35-9.8 8.88-10.96v8l-1.39 1.29c-0.82 0.75-1.54 3.9-1.75 7.61-0.41 7.18-3.28 10.52-9.09 10.57-2.81 0.03-3.09 0.35-3.53 4.03-0.44 3.77-0.76 4.11-5.57 5.85-4.66 1.69-5.28 2.29-7.15 7-1.45 3.63-4.45 7.58-10.17 13.37-6.72 6.8-8.22 8.91-9.35 16.28l-5.25 3.25c-2.89 1.79-7.5 5.22-10.25 7.63-4.77 4.18-4.8 4.23-0.5 0.95 2.48-1.89 7.09-4.65 16-8.83l-0.25 1.25c-0.14 0.69-1.48 2.09-2.98 3.13-1.5 1.03-2.43 2.35-2.07 2.94 0.42 0.69 0.05 0.82-2.7-0.32l-1.75 0.75c-0.96 0.41-1.86 1.31-2.25 3.25l-2 0.78c-1.1 0.43-2 1.33-2 3.22l-1.75 0.25c-0.96 0.14-1.86 1.04-2.25 3.75v1l-1.69-0.25c-0.92-0.14-1.85 0.54-2.07 1.5-0.21 0.96-1.01 1.75-1.78 1.75-0.76 0-1.87 0.9-2.46 2-0.66 1.24-2.1 2-3.79 2.01-1.49 0.01-3.5 0.91-6.21 3.99l-2 3v1l-1.51 0.25c-0.82 0.14-1.5 0.81-1.49 2.75v5l0.25 1.55c0.27 1.65 6.75-1.92 6.75-4.55l3.25-0.75c3.35-0.77 11.85-7.67 13.75-12.25h2l3.25-2.31c4.36-3.1 7.29-1.96 3.99 1.55-1.58 1.69-2.24 3.61-2.24 10.76-0.49 5.32-0.72 5.42-6.84 5.57-6.79 0.18-12.4 3.08-12.91 6.68l-0.25 1.75-8 1-1.51 1.08c-2.08 1.48-3.04 0.84-2.49-4.08zm19.1-33.3c-1.17-1.17-2.1-0.68-2.1 1.13 0 0.65 0.27 1.17 0.6 1.17 0.32 0 1.04-0.28 1.58-0.61 0.65-0.4 0.62-0.99-0.08-1.69" fill="rgba(22,17,12,1)"/>
 <path d="m185 120 0.08-2.75c0.21-7.43-1.68-27.27-2.58-27.02-0.55 0.15-1.14-0.97-1.32-2.48-0.3-2.65-1.26-3.31-4.18-1.75l-0.34-1.25c-1.02-3.79-2.22 1.89-2.66 12.57-0.43 10.55-0.73 12.2-2.25 12.49-1.36 0.26-1.75-0.35-1.75-5.81l-1-7v-1.69c0-0.93 0.53-2.88 1.17-4.33 1.23-2.78 0.62-5.98-1.14-5.98-0.58 0-1.03 2.39-1.03 11l-3 1v-7-5-3l-2-5-1-3v-1h3.5c2.83 0 3.5-0.38 3.5-2 0-1.94-0.67-2-44-2l17.25-0.57c20.99-0.7 24.38-1.63 20.8-5.74-3.39-3.88-5.48-10.54-4.84-15.44 0.51-3.94-2.84-2.59-9.81 3.97-6.63 6.22-6.63 6.22-22.4 4.78l6-3v-4l-4-2 2.3-1.11c1.88-0.9 2.44-2.21 3.7-12.89l2-2 1-2 1.62-1.75c1.16-1.25 1.74-1.39 2.38 0.75v1.51c0 0.83-0.9 2.28-2 3.22-3.75 3.22-2.52 4.27 12 4.27l2 3 2.5 0.7c2.12 0.6 2.5 0.38 2.5-1.5 0-2.35 1.28-3.02 1.83-0.95 1.76 6.71 2.9 7.85 5.91 5.93 0.68-0.43 2.37-0.43 6.26 0.82l1.75 1.75c2.73 2.73 6.11 2.79 7.1 0.13 0.7-1.89 1.5-2.23 9.15-1.88l1.51-0.25c0.82-0.14 1.5-1.04 1.5-2-0.01-0.96 0.44-1.75 1.99-1.75h2v3.79c0 3.63 0.16 3.81 8 5.21v3h-1.67c-0.91 0-1.87 0.21-2.12 0.46-0.91 0.91 0.77 3.54 3.79 3.54v1h-4-1l-3-1h-3l-0.78-1.5c-0.42-0.82-1.32-1.5-2-1.5-0.67 0-1.22 0.68-1.22 3h-1l-5.74 0.25c-4.73 0.21-5.8 0.58-6.1 2.15-0.32 1.67 0.08 1.82 3.38 1.29 3.34-0.54 3.8-0.36 4.19 1.66 0.33 1.73 1.35 2.42 8.27 3.65l0.75 1.53c0.45 0.93 2.05 1.52 7.25 1.47h4l1 3 2 1 0.66 2c0.76 2.31 0.18 3.21-1.78 2.79-0.76-0.16-1.27 0.27-0.88 2.21l6 1-2.09 2.25c-1.14 1.24-2.76 3.5-3.59 5.02-2.63 4.85-5.19 5.31-9 1.61-2.07-2-3.34-2.68-3.37-1.8-0.03 0.78 1.77 3.11 8.05 8.92l-0.71 2.15c-0.39 1.19-0.84 2.99-1.29 5.85l-2 1-3-2-0.84-1.25c-0.68-1-1.08-1-3.16 1.25l-0.75-0.46c-0.41-0.26-0.86 8.97-1.25 41.46v11l-0.78-37.75c-1.05-50.29-0.54-48.24-12-48.46-5.72-0.11-5.72-0.11 0.56 2.95 7.97 3.89 9.5 7.07 9.04 18.76-0.18 4.4-0.43 12.61-0.82 28.5zm5.09-53.85c-0.56 0.19-0.82 0.69-0.56 1.1s0.92 0.75 1.47 0.75 1-0.3 1-0.67c0-1.07-0.8-1.57-1.91-1.18" fill="rgba(58,43,30,1)"/>
 <path d="m81 152-1-15-1.03-2.75c-0.57-1.51-1.46-7.2-1.98-12.64-1.59-16.73-5.42-20.39-20.99-12.61v-1l0.03-1.75c0.02-0.96 0.95-3.08 2.06-4.72 2.37-3.46 2.05-7-2.09-4.53v-1l0.7-1.5c0.48-1.02 0.16-1.5-2.7-1.5l-0.76-1.75c-0.73-1.67-0.8-1.67-2.24 1.75l-3-1-1-3-0.43-1.49c-0.23-0.81-2.48-2.18-5-3.04-2.51-0.85-4.57-1.76-4.57-2.01v-0.71c0-0.14 2.7-0.36 12-0.75h1.8c0.99 0 2.11-0.9 3.2-4h1l0.3 0.75c0.9 2.22 8.04 1.19 15.1-2.19 4.09-1.96 8.17-3.56 9.08-3.56s2.37-0.89 3.24-1.99c1.32-1.64 2.45-1.9 11.28-1.01l-2 5h-1l-3-0.71c-2.86-0.67-3-0.55-3 5.71v4l0.28 1.19c0.4 1.69 3.72 0.21 3.72-3.19l5-3 1.73 1.41c1.64 1.34 1.64 1.53-0.12 3.47-1.02 1.13-2.03 2.74-2.61 5.12-1.62-2.77-2.59-2.82-7.48-1.81-5.55 1.14-5.8 1.1-7.71-1.25-2.59-3.19-2.52-2.36 1.27 14.81l2.92 13.25 0.25 1.25c0.14 0.69 1.04 1.59 3.75 2.75-4.38 1.83-4.42 2.06-3.09 5.19 0.78 1.82 1.8 4.89 2.28 6.81 0.82 3.31 1.1 3.5 5.09 3.5 6.12 0 9.99 7.4 10.42 19.97l0.3 8.53-0.72-3.75c-0.4-2.06-1.3-4.11-2-4.55-0.71-0.44-1.28-1.38-1.28-2.1 0-3.14-5.98-9.6-8.89-9.6-3.2 0-4.07 1.75-4.1 8.25-0.01 3.74-0.3 4.2-3.01 2.75zm0.18-19.22c-0.91-0.91-1.18-0.79-1.18 0.52 0 0.94 0.3 1.7 0.67 1.7 0.36 0 0.9-0.23 1.18-0.52 0.28-0.28-0.02-1.05-0.67-1.7m-20.49-42.94c-0.54-1.35-2.64 0.54-2.67 2.41-0.01 0.41 0.3 0.75 0.68 0.75 0.39 0 1.11-0.41 1.61-0.91s0.67-1.52 0.38-2.25m-7.69-2.84-0.3-1.25c-0.38-1.63-4.28-1.62-3.7 1.25l1.07 1.23c0.85 0.98 1.26 0.98 2.93-1.23zm-16.89-9.29c1.36 1.36 0.85 3.29-0.86 3.29-0.69 0-1.52-0.5-1.84-1.11-0.33-0.61-0.1-1.6 0.5-2.2 0.79-0.79 1.4-0.78 2.2 0.02" fill="rgba(58,43,30,1)"/>
 <path d="m161 179-3-2v-21l2.19-2.25c1.2-1.24 3.28-4.27 4.61-6.75 2.92-5.44 5.53-4.45 3.28 1.24-1.28 3.23-1.27 3.24 0.76 1.54 1.13-0.95 2.76-3.99 5.16-11.78 2.58-3.17 3-6.14 3-12.35 0-8.65 0-8.65-9.49-8.65-5.23 0-10.26-0.44-11.18-0.99-3.49-2.04-0.22-3.01 10.12-3.01h10.55v-25-2c2.92-1.56 3.88-0.9 4.18 1.75 0.18 1.51 0.77 2.63 1.32 2.48 0.9-0.25 2.79 19.59 2.58 27.02l-0.08 2.75v19 13 3h-1l-1-2-0.27-1.13c-0.14-0.62-0.59 2.53-1.73 15.13l-3 2 0.54-2c0.29-1.1 0.23-2-0.14-2-0.62 0-2.05 5.16-1.4 6l2 3v1l-3.25 1.11c-1.79 0.62-4.05 0.95-5.04 0.75-1.34-0.27-2.05 0.62-2.9 3.64-1.44 5.15-3.81 6.8-3.81 2.65 0-1.02-0.67-2.37-3-4.15zm20-41v12h1v-12z" fill="rgba(114,89,68,1)"/>
 <path d="m10 253 1-58v-1l1.25-1.99c1.47-2.34 4.03-2.58 6.04-0.57 0.79 0.79 3.39 1.57 5.78 1.75 4.18 0.3 4.42 0.49 7.93 9.81 4.41 16.37 4.99 20.96 4.99 29.16 0.01 12.14-0.65 13.37-5.74 10.6l-3.25-1.76v-5.67c0-3.11-0.15-5.81-0.33-6-1.2-1.19-1.67 0.42-1.67 11.67-4.77 0-5 0.39-5.02 4.25-0.02 5.92-1.12 7.21-6.44 7.5zm7-45 1.5 0.7c1.22 0.57 1.5-0.17 1.5-8.7v-1.67c0-2.28-0.79-2.88-3-0.33v-1.89c0-2.08-2.58-3.59-3.53-2.06-0.64 1.03 0.5 14.95 1.22 14.95 0.25 0 0.86-0.22 2.31-1z" fill="rgba(114,89,68,1)"/>
 <path d="m55 77 1.75-0.25c3.26-0.47 5-1.8 1.25-2.75l-1-4v-1h4l5-3 1.67-0.75c0.92-0.41 2.04-2.44 3.33-8.25h1l1.97-0.36c2.34-0.43 2.3 2.94-0.04 4.43-1.11 0.7-0.71 1.24 5.07 3.93h14 1 1.69c0.93 0 1.97-0.46 2.32-1.02 0.34-0.55 1.01-0.67 1.47-0.25 0.46 0.43 0.56-0.02 0.21-0.98-0.56-1.55 0.11-1.75 5.98-1.75 5.81 0 6.64-0.24 7.33-4v-2l4-2 1-4 1.53-1.75c0.85-0.96 1.75-2.76 2.47-6.25h2l1 5-1 3-3 1v2l3 1 2 3c15.77 1.44 15.77 1.44 22.4-4.78 6.97-6.56 10.32-7.91 9.81-3.97-0.64 4.9 1.45 11.56 4.84 15.44 3.58 4.11 0.19 5.04-20.8 5.74l-17.25 0.57h-31c-8.83-0.89-9.96-0.63-11.28 1.01-0.87 1.1-2.33 1.99-3.24 1.99s-4.99 1.6-9.08 3.56c-7.06 3.38-14.2 4.41-15.1 2.19z" fill="rgba(22,17,12,1)"/>
 <path d="m201 227c0-7.15 0.66-9.07 2.24-10.76 3.3-3.51 0.37-4.65-3.99-1.55l-3.25 2.31v-2l-0.75-1.48c-0.41-0.81-1.09-1.93-2.25-3.52v-1l1.25 0.32c0.69 0.17 1.59-0.05 2.75-1.32l11 1 0.87 1.25c0.65 0.94 1.2 0.76 2.24-0.75 1.07-1.57 1.1-2.16-1.11-3.5l1.25-1.01c0.69-0.56 2.15-2.12 3.25-3.46 1.1-1.35 3.01-3.45 4.25-4.68 4.83-4.79 2.13-9.09-5.75-7.85v-2c1.13-7.37 2.63-9.48 9.35-16.28 5.72-5.79 8.72-9.74 10.17-13.37 1.87-4.71 2.49-5.31 7.15-7 4.81-1.74 5.13-2.08 5.57-5.85 0.44-3.68 0.72-4 3.53-4.03 5.81-0.05 8.68-3.39 9.09-10.57 0.21-3.71 0.93-6.86 1.75-7.61l1.39-1.29v36l-4 1v-2-9l0.66-2c0.41-1.23 0.21-2-1.66-2-1.99-0.41-2.64 1.21-2.97 4.06-0.38 3.25-1.47 5.63-3.78 8.25l-3.25 3.69v1l-3 1-0.25-1.25c-0.85-4.26-9.75-0.89-9.75 7.25l-0.88 4.75c-1.5 8.14-0.19 7.79 5.88-5.75l4-2c-9.01 19.9-9.32 21.14-9.87 31.5-0.48 9.03-0.77 10.51-1.61 8.26-2.15-5.78-10.26-3.09-14.69 4.89-2.77 4.97-3.63 5.76-6.68 6.17-3.55 0.46-6.05 3.74-7.59 9.93z" fill="rgba(58,43,30,1)"/>
 <path d="m61 249 0.25-5.75c0.38-8.68-3.41-9.04-9.55-0.92-5.17 6.85-5.28 6.86-6.16 1.05-0.47-3.14-1.31-4.91-4.54-6.38v-17h4c3.65 0 4 0.23 4 2.62 0 2.36 0.26 2.54 2.75 1.88 8.01-2.13 11.67-1.28 12.88 2.99 1.14 3.99 1.14 3.99 14.37 5.51h5l1.4 2.12c1.47 2.21 3.6 1.81 3.6-0.68 0-1.01 1.18-1.44 4-1.44 2.89 0 4 0.42 4 3-6.08 7.55-8.02 9-9.63 9-2.23 0-2.37 0.35-2.37 6 0 6 0 6-5.01 6-6.71 0-10.99-2.12-10.99-5.45 0-2.31-0.38-2.55-4-2.55zm3-8v3h4v-3zm-4.93-11.33c-1.19-1.19-4.34-0.04-3.61 1.32 0.3 0.55 1.44 1.01 2.54 1.01s2-0.31 2-0.7c0-0.38-0.42-1.12-0.93-1.63" fill="rgba(114,89,68,1)"/>
 <path d="m11 194c0-12.49-0.46-16.16-1.07-16.54-0.59-0.37-0.85-1.23-0.58-1.92 0.79-2.07-1.06-7.99-2.76-8.79l-1.59-0.75v-9h2.06c1.8 0 2.02-0.53 1.75-4.25-0.25-3.38-0.67-4.2-3.81-3.75v-8h1.87c1.66 0 1.92-1.09 2.36-10.25 0.5-10.31-0.84-17.75-4.23-17.75v-3l1.99 0.54c1.1 0.29 2.7 1.89 3.56 3.56 2.08 4.02 4.53 3.43 6.45-5.1l-0.43 11.75c-0.24 6.46-0.06 14.23 0.4 17.25s0.59 7.84 0.29 10.71c-0.41 3.94-0.12 5.85 1.2 7.88 1.7 2.61 1.69 2.69-0.61 3.74-4.21 1.91-4.41 2.41-1.84 4.57 1.91 1.61 2.2 2.33-0.01 4.1l-2-1-0.85-1.12c-0.59-0.79-1.03-0.64-1.46 0.5-0.35 0.89-0.19 1.62 1.31 1.62l6 7 2.25 2.12c1.28 1.2 3.44 2.06 7.75 1.88l0.25 1.35c0.47 2.57 7.2 7.41 7.75 3.65l2 4-2 2-0.46-0.75c-0.91-1.47-3.04-0.71-2.54 2.75-1.79 0.42-1.83 1.33-1.21 3 0.54 1.44 0.57 3.45 0.07 4.75l-0.86 2.25c-3.51-9.32-3.75-9.51-7.93-9.81-2.39-0.18-4.99-0.96-5.78-1.75-2.01-2.01-4.57-1.77-6.04 0.57z" fill="rgba(58,43,30,1)"/>
 <path d="m93 200-1-3 0.7-2c0.57-1.61 0.27-2-3.7-2l-0.75-3.69c-0.41-2.02-1.31-3.86-2-4.08-0.72-0.23-1.25-2.06-1.25-4.31 0-3.81-0.1-3.92-7-3.92l-1-4 2.25-0.25c2.19-0.24 2.24-0.53 1.75-20.75 2.71 1.45 3 0.99 3.01-2.75 0.03-6.5 0.9-8.25 4.1-8.25 2.91 0 8.89 6.46 8.89 9.6 0 0.72 0.57 1.66 1.28 2.1 0.7 0.44 1.6 2.49 2 4.55l0.72 3.75v32h-2c-1.62 0-2 0.67-2 3.5s-0.38 3.5-4 3.5z" fill="rgba(114,89,68,1)"/>
 <path d="m58 57-2-7-8-1h-2l-5-2 1-2 1.51-0.25c0.82-0.14 1.5-0.81 1.49-2.75v-20l1.25-0.25c0.83-0.17 1.59 2.08 2.27 6.67 1.02 6.89 3.29 10.06 4.48 3.58l1.22 0.25c0.77 0.16 1.44-1.51 1.79-4.46 0.62-5.1 1.43-6.69 2.28-4.47 1.3 3.38 15.71 2.15 15.71-2.32l1.31 0.25c0.72 0.14 2.07 1.04 4.69 3.75l1 10-2 3-3 3-2 1-2 3h-1.5c-0.88 0-1.5 0.91-1.5 2.2 0 1.77 0.39 2.07 4 0.8h3l1-4 3-3 1 1 2 3-2.08 1.25c-1.15 0.69-1.79 1.55-1.43 1.9 0.35 0.36-0.96 1.6-6.49 4.85l-3 1-4.5-0.71c-3.86-0.61-4.5-0.47-4.5 2.71l-2 1zm1.5-6c-1.71-1.42-2.35-1.16-1.84 0.75 0.19 0.69 0.87 1.25 1.51 1.25s1.32-0.16 1.52-0.36c0.2-0.19-0.34-0.93-1.19-1.64m2.46-24.25c-0.03 0.41-0.25 1.76-0.5 3-0.36 1.74 0 2.25 1.54 2.25 1.1 0 1.95-0.45 1.89-1s-0.15-1.9-0.21-3c-0.1-1.83-2.62-2.99-2.72-1.25" fill="rgba(114,89,68,1)"/>
 <path d="m181 35v-2l0.21-3.59c0.17-2.99-0.16-3.66-4.21-4.41l-2.25 1.91c-1.24 1.05-3.04 1.95-4 2-1.05 0.05-1.75 0.89-1.75 4.09h-8-4l-4-1-0.25-1.51c-0.14-0.82-1.04-1.5-3.75-1.49l-1-9 0.25-5.64c0.21-4.82 0.58-5.76 2.5-6.47 1.24-0.45 2.25-1.29 2.25-2.89h9l-0.37 1.61c-0.2 0.88-0.65 1.78-1.63 2.39l-1.25 1.25c-1.62 1.62-2.21 5.75 0.25 5.75l1.59 0.25c0.94 0.15 1.25 0.65 0.75 1.23-0.53 0.62-0.2 0.71 2.66-0.48l3.05 3.11c3.27 3.33 5.23 3.41 2.4 0.1-1.59-1.86-1.76-5.18-0.18-3.61 0.4 0.41 0.73 0.07 0.73-0.73 0-0.81-0.54-2.01-1.2-2.67s-1.11-2.78-0.8-8.2h7v1c0 0.55-1.35 1-3 1-5.21 0-4.22 1.39 5 2l-0.01 6c-0.01 5.54 0.16 6 2.22 6 2.14 0 2.2-0.24 0.79-12l4-4h11l-2 2-1.75 0.75c-1.47 0.63-1.79 2.31-2.25 20.25l-1 5-1.15 1.25c-0.63 0.69-2.2 1.14-5.85 0.75z" fill="rgba(175,147,117,1)"/>
 <path d="m100 33v-1l1-9-1-11 1-7h16l0.43 3.25c1.32 10.09 8.41 13.25 6.57-3.25h9l0.25 1.75c0.14 0.98 1.24 1.85 2.5 1.99 1.24 0.13 2.19 0.13 2.12 0s-0.3-1.03-0.87-3.74h8l1 12-1 4-1 7h-3c-0.64-2.14-1.22-2-2.38-0.75l-1.62 1.75 0.02-1.25c0-0.69-0.9-1.87-2-2.62-1.11-0.76-2.02-1.99-2.02-2.75 0-1.51-3.3-1.73-6.5-0.43-1.18 0.48-1.69 1.27-0.5 3.05l-0.78 2c-0.43 1.1-1.56 2-4.22 2l-1-5 0.61-2.52c0.37-1.55 0-3.39-0.95-4.75-1.5-2.15-1.56-2.07-1.66 7.27l-1 1-3.85 2c-5.18 2.69-5.15 2.7-5.15-3 0-2.75-0.22-5-0.5-5h-0.88c-0.21 0-0.7 2.93-1.08 6.51-0.66 6.14-2.6 9.31-5.54 7.49z" fill="rgba(175,147,117,1)"/>
 <path d="m169 261v-8l0.25-3.74c0.18-2.64 0.76-3.84 2-4.07 0.96-0.19 1.75-0.98 1.75-3.19l8-1c3.49-0.03 7.99-0.03 12.25-0.02l7.75 0.02 0.38 3.25c0.69 5.91 4.19 9.49 6.89 7.04 3.79-3.44 7.68-3.83 8.73 1.71v3 5h-16v-1.71c0-1.89-1.15-2.7-5.25-3.67-2.54-0.61-2.75-0.42-2.75 5.38z" fill="rgba(114,107,99,1)"/>
 <path d="m19 176 0.25-1.25c0.14-0.69-0.54-2.26-3.25-5.75 2.21-1.77 1.92-2.49 0.01-4.1-2.57-2.16-2.37-2.66 1.84-4.57 2.3-1.05 2.31-1.13 0.61-3.74-1.32-2.03-1.61-3.94-1.2-7.88 0.3-2.87 0.17-7.69-0.29-10.71s-0.64-10.79-0.4-17.25l0.43-11.75v-8l2-0.18c1.48-0.13 2 0.43 2 2.13 0 1.53 0.68 2.44 4 3.05l3 3 1 19-0.22 3.05c-0.13 1.68 0.1 3.26 1.22 3.95l-1 5h-1l-0.25-1.51c-0.37-2.22-1.75-1.82-1.75 2.51v4l-1-1.15c-0.55-0.64-1.01-0.75-1.02-0.25 0 0.49-0.43 0.24-0.94-0.57s-1.12-1.26-1.34-1c-0.91 1.04 0.17 6.62 3.3 10.97v8l-1.06-1.22c-1.32-1.53-2.9 0.62-2.92 3.97-0.02 2.17 1.08 2.8 3.98 1.25l1 3 1 1 3 1 1 3-0.75 0.46c-1.78 1.08-1.31 3.54 2.75 3.54v1l-4 2c-4.31 0.18-6.47-0.68-7.75-1.88z" fill="rgba(114,89,68,1)"/>
 <path d="m84 233-0.25-1.59c-0.18-1.15-1.13-1.49-3.45-1.25-2.38 0.25-2.96 0.66-1.3 2.84-13.23-1.52-13.23-1.52-14.37-5.51-1.21-4.27-4.87-5.12-12.88-2.99-2.49 0.66-2.75 0.48-2.75-1.88 0-2.39-0.35-2.62-4-2.62h-4c0.67-8.43 6.13-8.54 12.31-3.75 8.55 6.62 13.77 8.45 16.94 5.93l2.75-2.18 2.75 1.72c1.51 0.95 3.09 1.63 4.25 1.28l2-2h3.38c2.58 0 3.52 0.49 3.93 2.07 1.07 4.11 7.12 2.23 7.5-2.32 0.24-2.95-0.04-3.75-1.34-3.75-0.91 0-1.89-0.9-2.18-2s-1.29-2-2.23-2c-0.96 0-1.99-1.08-3.06-5l-0.44-1.25c-0.34-1-0.54-1-1.56 1.25l-1 1v-2.11c0-2.28 6.69-2.01 8.13 0.32 0.89 1.44 3.3 0.47 1.87-2.21l1 0.25c0.55 0.14 1 0.99 1 1.88 0 0.9 1.01 1.93 2.25 2.29s3.14 1.31 4.22 2.11c1.08 0.81 3.67 1.47 9.53 1.47v2.2c0 1.77 0.39 2.07 4 0.8h4v1l-5.25 0.39c-3.58 0.26-5.49 0.9-6.75 3.61l-4 4h-1.67c-2.12 0-2.92 0.8-1.33 3v1c-4.51-4.26-8.38-3.57-6.92-0.85 0.6 1.11 1.38 1.71 1.75 1.34s0.82 0.78 0.99 2.56c0.18 1.78 0.07 3.4-0.25 3.6l-0.57 0.35c0-2.58-1.11-3-4-3-2.82 0-4 0.43-4 1.44 0 2.49-2.13 2.89-3.6 0.68z" fill="rgba(58,43,30,1)"/>
 <path d="m70 145 0.25-1.53c0.14-0.83-0.09-1.73-1.25-2.47v-6l-3.44-3.25c-1.89-1.79-4.14-3.14-6.56-2.75l-3-3-0.25-1.47c-0.14-0.81-0.59-1.26-1.75-0.53l-2-3 2-3 1.48 0.69c0.81 0.38 1.82 0.31 2.25-0.16 0.42-0.47 0.21-1.01-1.73-1.53l0.25-1.13c0.14-0.63-0.76-1.75-4.25-3.87l4-3c15.57-7.78 19.4-4.12 20.99 12.61 0.52 5.44 1.41 11.13 1.98 12.64l1.03 2.75-3.25 0.25c-2.98 0.23-3.28 0.56-3.56 4-0.2 2.45-0.81 3.75-3.19 3.75z" fill="rgba(114,89,68,1)"/>
 <path d="m209 105h-8-1c0.45-2.86 0.9-4.66 1.29-5.85l0.71-2.15 6.75 0.1c11.15 0.16 12.25 0.01 12.25-3.1l-0.53-1.96c-0.82-3.05 5.41-6.56 9.74-5.5 1.81 0.44 3.85 0.78 4.54 0.74 0.83-0.04 1.29 1.66 1.36 5.08 0.06 2.83 0.29 7.05 0.89 13.64l-4 2v-2-4.17c0-4.75-0.31-5.31-2.46-4.48-1.07 0.41-1.54 1.96-1.54 9.65l-1.45 0.86c-1.05 0.63-1.56 0.29-1.86-1.25-0.23-1.16-0.48-0.44-0.55 1.6-0.08 2.05 0.31 3.96 1.86 4.79l-0.25 3.25c-0.17 2.17 0.5 4.17 4.25 8.75l-0.89 0.64c-0.49 0.35-2.17-0.77-3.75-2.5-1.57-1.72-3.97-3.29-5.32-3.48-2.2-0.31-2.64-1.16-4-7.68-1.61-7.67-3.4-9.75-4.98-5.81-0.86 2.13-1.03 2.18-3.06-1.17z" fill="rgba(68,66,73,1)"/>
 <path d="m72 57v-1l1-3c5.53-3.25 6.84-4.49 6.49-4.85-0.36-0.35 0.28-1.21 1.43-1.9l2.08-1.25 2-2 0.87-1c1.3-1.5 3.13-1.2 3.13 0.5 0 0.82 0.68 1.5 3 1.5l4.5 1c4.28 0.96 4.5 1.17 4.5 4.5 0 2.83 0.38 3.5 2 3.5 1.67 0 2-0.67 2-4 0-4 0-4 4-4 3.93 0 4 0.06 4 3.63 0 2.85 0.43 3.72 4 4.37l-4 2-0.54-1c-0.95-1.79-2.49-1.06-3.53 1.69-0.98 2.57-0.9 2.66 4.07 1.31-0.69 3.76-1.52 4-7.33 4-5.87 0-6.54 0.2-5.98 1.75 0.35 0.96 0.25 1.41-0.21 0.98-0.46-0.42-1.13-0.3-1.47 0.25-0.35 0.56-1.39 1.02-2.32 1.02h-1.69l1.25-1.09c0.98-0.86 0.88-1.29-2.25-2.91v-8h1.11c1.32 0 5.34-4.89 4.61-5.62-0.28-0.28-1.91 0.87-6.72 5.62l-1.51 0.25c-0.98 0.16-1.5 1.38-1.49 6.75l-2.25 0.94c-1.24 0.52-3.94 0.97-6 1-3.82 0.06-4.54 0.64-1.75 3.06-5.78-2.69-6.18-3.23-5.07-3.93 2.34-1.49 2.38-4.86 0.04-4.43z" fill="rgba(58,43,30,1)"/>
 <path d="m256 45-9-1v-10h1l0.67-2.58c0.37-1.42 0.37-2.77-0.67-3.42l0.6-9.07c0.67-10.22 0.7-10.12-5.6-8.93h-2v-5h20v40zm-4.88-11.5c0.12 2.2 0.36 4.34 0.55 4.75 0.18 0.41 0.76-0.02 1.28-0.97 0.63-1.13 0.59-1.94-0.11-2.38-0.7-0.43-0.6-0.83 0.3-1.16 1.08-0.4 0.99-0.89-0.43-2.37-1.74-1.81-1.79-1.74-1.59 2.13" fill="rgba(114,89,68,1)"/>
 <path d="m29 128-1-19 0.71-4c0.61-3.39 0.46-4-2.71-4l1.38-0.76c1.05-0.59 0.58-1.53-5.38-7.24l-0.25-1.25c-0.14-0.71 0.74-1.25 2.03-1.25 1.26 0 2.49-0.34 3.22-1.5l1-2 5-2 4 2 2.36 3c1.31 1.67 3.3 3 4.5 3 1.24 0 2.14 0.63 2.14 1.5 0 0.83 0.62 1.5 1.38 1.5s1.62 1.2 1.9 2.67c0.37 1.97 0.92 2.49 3.72 1.33l-2 6-2.25 0.62c-1.36 0.38-3.09 0.01-4.36-0.94-1.6-1.18-6.39-1.4-6.39-0.29 0 0.08 0.56 1.63 1.24 3.44 1.14 3.01 1.05 3.44-1 4.99-1.36 1.03-2.04 2.37-1.24 5.18l1 2-0.93 2.75c-0.52 1.51-0.97 2.35-1 1.87-0.04-0.48-0.97-0.15-4.07 2.38zm7-15 0.69-1.48c0.82-1.74-0.33-3.22-2.69-1.52l-0.7 1.5c-0.48 1.02-0.16 1.5 2.7 1.5zm3-10 1.14-0.86c2.31-1.74 0.05-6.6-5.14-5.14l-1.75 0.88c-0.96 0.49-1.41 1.16-0.25 2.12l4 3zm8.8-1.11c-0.45-1.35-2.8-0.37-2.8 1.17 0 0.52 0.53 0.94 1.17 0.94s1.36-0.2 1.6-0.44 0.25-0.99 0.03-1.67" fill="rgba(58,43,30,1)"/>
 <path d="m17 58v-29-2.85c0-3.11-3.05-8.48-4-5.15l-1.75 0.31c-0.96 0.17-2.76 1.07-6.25 3.69 0-19.33 0.13-20 2-20h2v2c0 1.33 0.67 2 2 2 1.11 0 2-0.67 2-1.5s0.89-1.5 2-1.5c1.62 0 2 0.67 2 3.5 0 3.48 0.02 3.5 9 3.5v1 16l-0.74-4.16c-0.77-4.28-2.63-5.68-5.88-4.43-1.53 0.58-1.53 0.77-0.02 2.44 1.05 1.15 1.65 3.59 1.66 6.73 0.02 6.46 1.18 8.38 4 6.63 1.97-1.22 2.05-1.12 0.98 4.79l-2 9-1.63 4.25c-3.07 8.01-3.51 8.55-5.37 2.75z" fill="rgba(153,122,96,1)"/>
 <path d="m5 110v-9h4c4 0 4 0 4-51v-9l1-12h3v29 10 2 19 2c0 1.47 0.67 2 5 2 5.96 5.71 6.43 6.65 5.38 7.24l-1.38 0.76h-1l-2.75-2.25c-3.96-3.24-5.25-3.32-5.25 2.25v8c-1.92 8.53-4.37 9.12-6.45 5.1-0.86-1.67-2.46-3.27-3.56-3.56z" fill="rgba(22,17,12,1)"/>
 <path d="m232 137 1.17-0.75c5.48-3.51 6.89-7.02 3.85-9.58-1.66-1.39-3.69-2.34-6.02-1.67-3.75-4.58-4.42-6.58-4.25-8.75l0.25-3.25 2 1 0.25 1.36c0.14 0.74 2.16 2.99 8.75 8.64l1.55 1.75c1.45 1.64 1.68 1.54 3.75-1.65 1.21-1.87 3.81-5.37 5.78-7.79 2.93-3.6 3.61-5.29 3.92-14.31l2-0.7c1.69-0.59 2-1.6 2-12.3v-5l4 1v28c-2.53 1.16-5.8 5.76-8.88 10.96-3.09 5.21-6.96 10.38-8.6 11.5s-4.34 3.07-6 4.33c-3.02 2.3-3.02 2.3-3.31-0.25-0.16-1.4-0.72-2.54-1.25-2.54z" fill="rgba(51,58,66,1)"/>
 <path d="m217 261v-5c12.02-0.86 14.68-2.77 15.61-7.64 1.06-5.51 15.14-5.17 17.39 0.42 1.41 3.5 1.79 3.74 6.25 3.97l4.75 0.25c0 8 0 8-22 8z" fill="rgba(22,17,12,1)"/>
 <path d="m221 74-0.25-2.21c-0.14-1.22-0.81-2.34-2.75-2.79l1.03-1.45c0.71-0.99 0.71-1.62-1.03-2.55l2-3 1.15 0.61c0.82 0.44 0.96-0.53 0.5-3.42-0.51-3.18-0.32-4.11 0.88-4.37 1.36-0.28 1.35-0.43-0.03-1.32-1.17-0.75-1.64-3.29-1.93-10.25-0.21-5.09-0.68-9.23-1.05-9.19s-1.09-0.41-2.52-2.06l1-2 3.73 0.25c2.83 0.19 4.02 0.85 4.98 2.75 0.69 1.38 1.27 1.94 1.28 1.25 0-0.69 1.14-1.25 5.01-1.25v2l0.06 4.25c0.03 2.34 0.03 6.61-0.06 14.75l-0.75-0.48c-2.03-1.31-3.35 3.32-3.06 10.73 0.31 7.75 0.31 7.75-3.22 7.75-1.94 0-3.85 0.45-4.97 2z" fill="rgba(153,122,96,1)"/>
 <path d="m233 35v-2-9l-0.25-1.51c-0.14-0.82-1.04-1.5-3.75-1.49l-5.05-0.79c-2.77-0.43-4.72-1.1-4.33-1.5 0.39-0.39 0.19-0.71-0.45-0.71s-1.17 0.45-1.17 1-1.57 1-7 1h-10l-2-1 5-3-2-2-1-9h14l1.25 3.07c3.57 8.76 5.8 10.19 11.72 7.54 3.48-1.56 9.03-7.1 9.03-10.61h3l1 5-3 3-1 9v2 1l-0.86 5.25c-0.5 3.06-1.33 5.15-3.14 4.75z" fill="rgba(191,183,170,1)"/>
 <path d="m221 94-1.75-0.25c-3.61-0.52-4.28-5.27-0.25-16.75h2l1.18 1.55c1.03 1.33 1.3 1.2 2.82-3.55v1.13c0 0.63 2.73 2.59 6.06 4.37 3.55 1.9 6.92 4.6 8.15 6.52 2.69 4.22 4.79 2.74 4.79-3.37 0-5.49-2.77-9.58-10-10.65v-1l3.75-0.32c2.06-0.18 2.93-0.4 1.93-0.5s-2.01-0.86-2.68-3.18l1.5 0.62c1.31 0.54 1.5-2.45 1.5-47.62l1 13v20 7.34c0 6.45 0.24 7.42 4 8.66v15 9l-0.51 2.7c-0.28 1.48-0.93 2.96-1.45 3.27-0.51 0.32-0.73 0.91-0.04 2.03l-6 4c-0.6-6.59-0.83-10.81-0.89-13.64-0.07-3.42-0.53-5.12-1.36-5.08-0.69 0.04-2.73-0.3-4.54-0.74-4.33-1.06-10.56 2.45-9.74 5.5z" fill="rgba(58,43,30,1)"/>
 <path d="m59 184-1-9 2-2-1.73-1.69c-0.96-0.93-1.86-2.73-2.27-6.31l1.75-0.9c2.35-1.2 2.83-6.67 0.77-8.73-1.49-1.48-1.47-1.76 0.14-3.54 1.36-1.51 1.59-2.83 0.34-9.83v-2l-1.55-3.18c-1.4-2.88-1.4-3.27 0-4.05 0.85-0.48 1.55-1.52 1.55-3.77 2.42-0.39 4.67 0.96 6.56 2.75l3.44 3.25h-3l-0.45-0.73c-1.3-2.11-2.55-1.06-2.55 5.73l-0.65 0.9c-1.65 2.29-1.63 20.78 0.02 21.41 1.23 0.48 1.63 0.03 1.63-4.31l0.63 1.25c1.86 3.72 3.13 4.92 8.37 5.75l4 8 1 4-2 4h-1l-1.94-1.58c-2.64-2.15-3.52-1.91-4.06 3.58l-2 1 0.25-3.37c0.22-2.89-0.07-3.38-1.95-3.38-1.8 0-2.25 0.65-2.5 3.63-0.23 2.79-0.7 3.56-3.8 3.12z" fill="rgba(86,89,96,1)"/>
 <path d="m53 202-2-2-1.06-2.08c-1.43-2.8-0.86-4.42 1.56-4.42 1.35 0 1.9-0.57 1.71-1.75-0.17-0.96-0.96-1.75-1.78-1.75-0.81 0-1.92-1.16-2.46-2.58-1.55-4.08-3.44-2.34-3.97 8.58l-1 1c-2.4-0.69-2.97-1.98-2.93-3.68 0.04-1.55-0.41-3.16-1-3.57l-1.07-0.75-2-4v-1.5c0-0.82-0.9-2.4-4-5.5v-1l-1.15-1c-0.87-0.76-0.87-1.24 1.15-3l1-4 1.51-0.25c0.98-0.16 1.5-1.38 1.49-6.75l3-1 1 1 1 4v2l3 3 4 5 1 7 3.2 3.25c1.76 1.79 3.56 4.04 4.8 6.75v3.67c0 4.09 0.33 4.76 3 3.33l-0.28 1.18c-0.58 2.45-2.86 1.95-3.69-0.83-0.47-1.57-0.9-2.15-0.94-1.3-0.05 0.85-0.76 1.86-3.09 2.95zm-17-29.5v1.5c0 0.55 0.49 1 1.1 1 0.6 0 1.5-0.25 2-0.56 1.6-0.99 0.96-2.44-1.1-2.44-1.1 0-2 0.23-2 0.5" fill="rgba(165,124,71,1)"/>
 <path d="m126 85h35 1l3 5v7h-7l-0.25-1.41c-0.41-2.29-6.87-5.86-12.25-6.76-8.59-1.44-10.03-1.41-9.65 0.2 0.19 0.81 0.53 2.93 1.15 7.97v9l-5.22 0.25c-3.58 0.17-5.27-0.14-5.37-1-0.09-0.69-0.25-1.36-0.36-1.5-0.91-1.12-0.68-4.78 0.5-8.17 1.85-5.32 1.81-6.35-0.3-6.83-1.53-0.34-1.5-0.45 0.25-0.89 1.58-0.4 1.74-0.75-0.5-2.86z" fill="rgba(206,155,61,1)"/>
 <path d="m196 162-0.38-2.64c-0.21-1.45-0.66-3.03-1.62-4.36l1-2 1-4v-1l0.74-1.03c0.43-0.59-0.2-1.28-1.5-1.62-2.79-0.73-2.95-3.93-0.24-4.64 1.1-0.29 2-1.24 2-3.71h5l2.75-1.78c1.51-0.97 3.09-2.55 4.25-5.22l2.83-0.78c1.55-0.43 3.32-1.66 3.94-2.75 0.62-1.1 1.57-1.64 3.23-0.47-1.39 0-1.72 1.23-1.64 2.73 0.1 1.89-0.41 2.84-1.62 3.08-0.97 0.19-1.5 0.77-1.18 1.29 0.33 0.52-0.72 1.41-2.31 1.96-6.17 2.15-6.64 13.94-0.56 13.94 0.72 0 1.31 0.68 1.31 1.5v1.5 1l-1.27 0.25c-0.7 0.14-3.85 2.84-12.73 11.75z" fill="rgba(51,58,66,1)"/>
 <path d="m219 126c-1.66-1.17-2.61-0.63-3.23 0.47-0.62 1.09-2.39 2.32-3.94 2.75l-2.83 0.78v-25c2.03 3.35 2.2 3.3 3.06 1.17 1.58-3.94 3.37-1.86 4.98 5.81 1.36 6.52 1.8 7.37 4 7.68 1.35 0.19 3.75 1.76 5.32 3.48 1.58 1.73 3.26 2.85 3.75 2.5l0.89-0.64c2.33-0.67 4.36 0.28 6.02 1.67 3.04 2.56 1.63 6.07-3.85 9.58l-1.17 0.75c-5.65 0-6.13-0.43-6.65-3.25-0.35-1.9-1.8-4.19-3.48-5.5z" fill="rgba(86,89,96,1)"/>
 <path d="m85 82v-3c0-6.26 0.14-6.38 3-5.71l3 0.71-0.56 1.05c-0.31 0.58-0.37 1.82-0.13 2.75 0.31 1.21 0.61 0.9 1.69-3.8l2-5h31c43.33 0 44 0.06 44 2 0 1.62-0.67 2-3.5 2h-3.5-15-45-1.72c-0.95 0-2.08 0.68-3.28 3l-3 2-5 3-0.49-1.72c-0.43-1.5-0.67-1.44-3.51 2.72z" fill="rgba(206,155,61,1)"/>
 <path d="m196 148-1.25-1.17c-0.69-0.64-2.26-1.31-5.75-1.83 0.39-32.49 0.84-41.72 1.25-41.46l0.75 0.46h4l3 2-0.02 3.75c-0.01 2.06-0.22 6.34-0.47 9.5-0.44 5.64-0.24 6.32 1.59 5.19 0.49-0.31 0.9 1.46 0.9 3.93 0 2.75-0.48 4.61-1.25 4.81-0.69 0.17-1.36 1.11-1.75 3.82 0 2.47-0.9 3.42-2 3.71-2.71 0.71-2.55 3.91 0.24 4.64 1.3 0.34 1.93 1.03 1.5 1.62z" fill="rgba(114,107,99,1)"/>
 <path d="m121 140v-20l4.25 0.86c5.14 1.04 5.06 1.08 3.76-2.34-0.76-1.99-0.73-3.15 0.09-4.14 1.69-2.03 3.9-1.68 3.9 0.62 0 2.05 0.44 2.37 3 1l1 3v32l-0.72-5.25c-0.89-6.46-2.16-7.33-15.28-5.75z" fill="rgba(206,155,61,1)"/>
 <path d="m82 221-3.6-4c-4.79-5.31-6.13-4.19 1.6 6-1.16 0.35-2.74-0.33-4.25-1.28l-2.75-1.72-5-7-2-6 0.25-0.66c0.14-0.36 1.71-0.84 3.5-1.06s3.25-0.82 3.25-2.28l2 0.78c1.16 0.46 2 1.71 2 3 0 2.14 1.11 2.77 4 1.22l4 1 1-1h2c1.07 3.92 2.1 5 3.06 5 0.94 0 1.94 0.9 2.23 2s1.27 2 2.18 2c1.3 0 1.58 0.8 1.34 3.75-0.38 4.55-6.43 6.43-7.5 2.32-0.41-1.58-1.35-2.07-3.93-2.07z" fill="rgba(165,124,71,1)"/>
 <path d="m202 97c-6.28-5.81-8.08-8.14-8.05-8.92 0.03-0.88 1.3-0.2 3.37 1.8 3.81 3.7 6.37 3.24 9-1.61 0.83-1.52 2.45-3.78 3.59-5.02l2.09-2.25 1-1-1-6-1.5-0.83c-0.82-0.46-1.5-1.58-1.5-2.5 0-1-0.8-1.67-4-1.67l-3-3-1-8h4 1l3 4 1 5 1.47 1.58c0.81 0.86 2.38 2.21 5.53 4.42l2 4c-4.03 11.48-3.36 16.23 0.25 16.75l1.75 0.25c0 3.11-1.1 3.26-12.25 3.1z" fill="rgba(22,17,12,1)"/>
 <path d="m121 140c13.12-1.58 14.39-0.71 15.28 5.75l0.72 5.25c0 5.33-0.44 6-2 6-1.33 0-2 0.67-2 2 0 1.1-0.64 2-1.43 2s-1.72 0.9-2.07 2-1.45 2-2.45 2-2.05-0.9-2.34-2-1.24-2-2.12-2c-1.35 0-1.59-1.56-1.59-10.5z" fill="rgba(239,216,142,1)"/>
 <path d="m41 237c3.23 1.47 4.07 3.24 4.54 6.38 0.88 5.81 0.99 5.8 6.16-1.05 6.14-8.12 9.93-7.76 9.55 0.92l-0.25 5.75c0 8 0 8-9.9 8s-9.9 0-10-10z" fill="rgba(58,43,30,1)"/>
 <path d="m5 101v-45l2.72 3.95c3.3 4.77 4.24 3.84 4.28-9.95h1c0 51 0 51-4 51zm2.37-12c-0.75 0-1.37 0.9-1.37 2s0.11 1.99 0.25 1.97c0.14-0.01 0.75-0.91 1.37-2 0.88-1.55 0.82-1.97-0.25-1.97" fill="rgba(142,137,124,1)"/>
 <path d="m238 124 1.07-0.25c0.59-0.14-0.76-2.39-7.07-9.75l1-6 4-2 6-4 5-3 1.28 1.5c0.7 0.83 1.83 1.5 3.72 1.5-0.31 9.02-0.99 10.71-3.92 14.31-1.97 2.42-4.57 5.92-5.78 7.79-2.07 3.19-2.3 3.29-3.75 1.65z" fill="rgba(86,89,96,1)"/>
 <path d="m92 44 3-12 2-3v3l0.85 1.25c0.46 0.69 1.14 0.91 2.15-0.25 2.94 1.82 4.88-1.35 5.54-7.49 0.38-3.58 0.87-6.51 1.08-6.51h0.88c0.28 0 0.5 2.25 0.5 5 0 5.7-0.03 5.69 5.15 3l3.85-2 1 2-1 3-1.06-1.22c-1.36-1.57-3.09 0.91-1.94 5.22h-1l-1.95-1.04c-2.83-1.5-6.05 0.77-6.05 4.28 0 1.92 0.53 2.79 1.75 2.86 0.96 0.05 2.99 0.28 7.25 0.9h1l0.74 3.75c0.4 2.06 1.08 3.86 2.26 4.25l-1 4c-3.57-0.65-4-1.52-4-4.37 0-3.57-0.07-3.63-4-3.63-4 0-4 0-4 4 0 3.33-0.33 4-2 4-1.62 0-2-0.67-2-3.5 0-3.33-0.22-3.54-4.5-4.5z" fill="rgba(153,122,96,1)"/>
 <path d="m185 171v-5-11-3-13-19c0.39-15.89 0.64-24.1 0.82-28.5 0.46-11.69-1.07-14.87-9.04-18.76-6.28-3.06-6.28-3.06-0.56-2.95 11.46 0.22 10.95-1.83 12 48.46l0.78 37.75v10l-1 8z" fill="rgba(22,17,12,1)"/>
 <path d="m81 208v-3.5c0-2.83-0.38-3.5-4-3.5h-3.79c-3.63 0-3.81-0.16-5.21-8h-8-2c-1.24-2.71-3.04-4.96-4.8-6.75l-3.2-3.25v-2l3 1 2 2 4 1v2.5c0 2.29 0.37 2.5 4.44 2.5 5.01 0 5.94-0.79 3.56-6l2-1 1.25 1.33c0.69 0.73 2.49 2.47 4 3.86 1.88 1.73 2.75 3.54 2.75 5.67 0 2.68 0.36 3.14 5 3.14l1.25 0.25c0.69 0.14 1.59 1.04 2.75 3.75l1.25-0.75c0.69-0.41 1.59-1.31 2.75-3.25h2l1 3v2.25c0 1.24 0.45 2.36 2 2.75 1.43 2.68-0.98 3.65-1.87 2.21-1.44-2.33-8.13-2.6-8.13-0.32v2.11z" fill="rgba(22,17,12,1)"/>
 <path d="m73 165-0.35-4c-0.36-4.05-1.07-5.03-1.99-2.75-0.34 0.84-0.53 0.75-0.58-0.28-0.04-0.84 0.37-1.85 1.92-2.97v-1l0.68-2.42c0.63-2.24 0.41-2.43-6.68-2.58l2-4h2c2.38 0 2.99-1.3 3.19-3.75 0.28-3.44 0.58-3.77 3.56-4l3.25-0.25 1 15c0.49 20.22 0.44 20.51-1.75 20.75l-2.25 0.25z" fill="rgba(153,122,96,1)"/>
 <path d="m121 120v-22-5.63c0-3.1-0.45-6.03-2-7.37h7c2.24 2.11 2.08 2.46 0.5 2.86-1.75 0.44-1.78 0.55-0.25 0.89 2.11 0.48 2.15 1.51 0.3 6.83-1.18 3.39-1.41 7.05-0.5 8.17 0.11 0.14 0.27 0.81 0.36 1.5 0.1 0.86 1.79 1.17 5.37 1l5.22-0.25v2l-1 8c-2.56 1.37-3 1.05-3-1 0-2.3-2.21-2.65-3.9-0.62-0.82 0.99-0.85 2.15-0.09 4.14 1.3 3.42 1.38 3.38-3.76 2.34z" fill="rgba(170,114,48,1)"/>
 <path d="m201 241c3.46-1.58 4-2.79 4-5.42 0-4.81 1.31-6.39 3.92-4.72 1.49 0.95 2.45 0.98 3.95 0.12 1.09-0.62 2.26-0.85 2.62-0.49 1.35 1.35 3.78 21.77 2.63 22.15l-1.12 0.36c-1.05-5.54-4.94-5.15-8.73-1.71-2.7 2.45-6.2-1.13-6.89-7.04z" fill="rgba(58,43,30,1)"/>
 <path d="m157 237 4-1 5 1v1.67c0 2.28 0.79 2.88 3 0.33-0.55 4.92 0.41 5.56 2.49 4.08l1.51-1.08c0 2.21-0.79 3-1.75 3.19-1.24 0.23-1.82 1.43-2 4.07l-0.25 3.74c-20-0.02-20-0.02-20-6.01s0-5.99 4.25-6.06c4.17-0.07 8.74-1.29 7.75-2.07-0.27-0.22-1.29-0.73-2.25-1.13z" fill="rgba(58,43,30,1)"/>
 <path d="m126 85h-7-9-4.17c-5.07 0-5.25-0.16-4.49-3.97 0.61-3.03 0.61-3.03 21.66-3.03h10l-14.25 1.14c-14.25 1.13-14.25 1.13 42.25 1.86v4z" fill="rgba(244,244,209,1)"/>
 <path d="m115 41h1c0.55 0 1-0.9 1-2 0-1.33-0.67-2-4-2v-3h1l3-4 1-3 3 2c2.66 0 3.79-0.9 4.22-2l0.78-2 1.51 0.25c0.82 0.14 1.5 1.04 1.5 2-0.01 0.96 0.44 1.75 1.99 1.75l3 4c-1.26 10.68-1.82 11.99-3.7 12.89l-2.3 1.11-3-1-1-5 0.25-3.75c0.19-2.78-0.14-3.75-1.25-3.75s-1.44 0.97-1 7.5c-0.72 3.49-1.62 5.29-2.47 6.25l-1.53 1.75c-1.18-0.39-1.86-2.19-2.26-4.25z" fill="rgba(96,63,28,1)"/>
 <path d="m156 197 4-6 1.98-0.25c2.79-0.35 5.8-2.74 9.02-8.75l2.51-1.25c2.15-1.07 2.74-0.99 5.49 2.25l-0.75 1.73c-0.41 0.96-0.64 2.08-0.25 3.27v1l-4 4-6 8-6 2-0.9 1.62c-1.47 2.65-3.55 1-5.1-7.62z" fill="rgba(53,221,244,1)"/>
 <path d="m29 60 0.35-6.75c0.18-3.71 0.42-6.75 0.51-6.75 0.1 0 0.39-0.56 1.14-2.5l2-3h1l3-1 1 1-0.52 3.71c-0.47 3.38-0.33 3.64 3.52 2.29l5 2-0.65 6c-0.65 6-0.65 6-4.09 6-2.47 0-3.69 0.56-5.26 4l-2.65-3.48c-1.63-2.15-2.97-3.11-4.35-1.52z" fill="rgba(96,63,28,1)"/>
 <path d="m97 28-1-8v-7-2.67c0-4.12-2.69-4.18-5 1.67l-2 8-0.87 1c-0.56 0.65-1.62 0.3-5.13-3l-1.41-1.01c-0.89-0.63-1.54-0.64-1.75-0.05-0.22 0.61-0.8 0.61-2.84-0.94l-0.43-1.5c-0.24-0.82-1.14-1.5-2-1.5-1.16 0-1.57-1.03-1.57-8h24z" fill="rgba(114,89,68,1)"/>
 <path d="m205 44-0.25-1.51c-0.14-0.82-0.81-1.5-2.75-1.49h-1v-2c0-1.33-0.67-2-4-2l-1.25-1.07c-0.69-0.59-2.71-1.04-4.5-1s-3.25-0.38-3.25-1.93l1-5v3c0 2.33 0.44 3 2 3s2-0.67 2-6v-6-15l2-2h3l-0.25 3.75c-0.31 4.6 0.69 7.25 4.25 7.25h2l-5 3-2 2-0.25 3.25c-0.24 3.17-0.16 3.24 7.25 2.75l1 1 0.34 2.75c0.26 2.15 0.37 2.26 0.66-1.75h1l1 16zm0.53-7.95c-0.74-1.19-2.53-0.48-2.53 1.01 0 0.52 0.53 0.94 1.17 0.94s1.36-0.2 1.6-0.43c0.24-0.24 0.13-0.92-0.24-1.52" fill="rgba(153,122,96,1)"/>
 <path d="m86 201v-2.7c0-2.27-0.32-2.59-4-1.3-4.64 0-5-0.46-5-3.14 0-2.13-0.87-3.94-2.75-5.67-1.51-1.39-3.31-3.13-4-3.86l-1.25-1.33c0.54-5.49 1.42-5.73 4.06-3.58l1.94 1.58 2 4 0.37 2c0.23 1.26 1.15 2 2.5 2 2.87 0 2.76-1.14-2.87-5l-1-3 2-4c6.9 0 7 0.11 7 3.92 0 2.25 0.53 4.08 1.25 4.31 0.69 0.22 1.59 2.06 2 4.08l0.75 3.69 1 4c-1.16 1.94-2.06 2.84-2.75 3.25z" fill="rgba(165,124,71,1)"/>
 <path d="m245 85v-15-3l1.75 1.31c2.78 2.09 5.47 1.94 6.25-2.31l4-1v3.67c0 4.24 0.37 4.83 4 3.33v5h-2c-1.62 0-2 0.67-2 7v5l-1.62-0.67c-1.06-0.44-2.29 0.17-3.58 1.75-1.96 2.42-1.96 2.42-1.34-0.43 0.75-3.39-0.72-5.52-5.46-4.65z" fill="rgba(142,137,124,1)"/>
 <path d="m95 205c-1.55-0.39-2-1.51-2-2.75v-2.25c3.62 0 4-0.67 4-3.5s0.38-3.5 2-3.5h2l2 6 2.77 1.75c1.52 0.96 3.16 1.43 3.64 1.03 0.47-0.4 1.48-0.28 3.59 1.22l1.75 0.96c0.96 0.53 3.66 1.2 10.25 2.04l-1.25 1.04c-0.69 0.57-2.46 1.02-3.94 1s-2.99 0.44-3.36 1.04c-0.36 0.59-1.29 0.81-3.45-0.08l-0.37-2c-0.2-1.1-1.1-2-2-2-2.07 0-2.19 2.26 1.37 4l1 4c-5.86 0-8.45-0.66-9.53-1.47-1.08-0.8-2.98-1.75-4.22-2.11s-2.25-1.39-2.25-2.29c0-0.89-0.45-1.74-1-1.88z" fill="rgba(165,124,71,1)"/>
 <path d="m123 78-22-1 1-4h45l15 1 1 3-30 1z" fill="rgba(51,58,66,1)"/>
 <path d="m141 211-2-1v-2c0-1.2-0.67-2-1.67-2-0.92 0-2.38-0.59-3.25-1.31s-5.52-1.84-19.08-3.69c0.39-0.56 3.43-0.35 7 0.1 7.94 1 12.87 0.27 13.23-1.96 0.15-0.9 0.95-1.8 1.77-1.99 0.83-0.2 2.27-1.04 3.21-1.87 0.93-0.83 3.18-1.58 5-1.67 2.27-0.12 3.37-0.7 3.54-1.89l0.25-1.72 1 8-5 1-1.75 0.88c-0.96 0.49-1.41 1.16-0.25 2.12l0.25 1.25c0.14 0.69 0.31 1.39 0.39 1.56s1.99 0.28 8.36 0.19v7l-4 2-2.2-0.73c-1.21-0.4-2.79-1.07-4.8-2.27z" fill="rgba(51,58,66,1)"/>
 <path d="m53 32v-13-9l1-5h4l-0.65 6c-0.64 5.95-0.63 6 1.93 6 1.6 0 2.75-0.66 3.05-1.75 0.45-1.67 0.52-1.67 1.62 0 0.77 1.18 2.44 1.75 9.05 1.75l1 4c0 4.47-14.41 5.7-15.71 2.32-0.85-2.22-1.66-0.63-2.28 4.47-0.35 2.95-1.02 4.62-1.79 4.46z" fill="rgba(58,43,30,1)"/>
 <path d="m38 75-0.29-1.24c-0.53-2.25-3.91-2.13-4.71 2.24l-0.77 1.02c-1.08 1.43-7.23 0.04-7.23-3.02l2.25-0.25c2.28-0.25 4.01-4.75 0.75-4.75l-1.51-0.25c-2.08-0.35-1.87-1.98 0.51-4.02 1.1-0.94 2-2.39 2-4.73 1.38-1.59 2.72-0.63 4.35 1.52l2.65 3.48 6.17 0.25c7.54 0.31 8.99 2.3 2.39 3.29-5.58 0.84-6.85 4.46 1.44 4.46v1l-1 4-1 2-2.75-0.25c-2.02-0.18-2.82-0.85-3.25-4.75z" fill="rgba(170,114,48,1)"/>
 <path d="m173 232v-3-2-2-1l1.11 0.59c1.71 0.92 3.51-1.32 0.89-3.59 2.71-3.08 4.72-3.98 6.21-3.99 1.69-0.01 3.13-0.77 3.79-2.01 0.59-1.1 1.7-2 2.46-2 0.77 0 1.57-0.79 1.78-1.75 0.22-0.96 1.15-1.64 2.07-1.5l1.69 0.25c1.16 1.59 1.84 2.71 2.25 3.52l0.75 1.48-1.75 0.36c-0.96 0.2-1.41 0.65-0.25 1.64-1.9 4.58-10.4 11.48-13.75 12.25l-3.25 0.75z" fill="rgba(91,56,40,1)"/>
 <path d="m101 97v-5.63c0-5.63 0-5.63 3.43-5.07 1.89 0.3 3.91 0.14 5.57-1.3h9c1.55 1.34 2 4.27 2 7.37v5.63z" fill="rgba(96,63,28,1)"/>
 <path d="m45 129-0.25-1.75c-0.14-0.96-1.04-1.86-3.75-2.25v-3l5.02 0.25c2.76 0.14 5.24-0.09 5.98-1.25l2 3 5 5c0 2.25-0.7 3.29-1.55 3.77-1.4 0.78-1.4 1.17 0 4.05l1.55 3.18-6.75 0.25c-6.75 0.25-6.75 0.25-7.25-11.25z" fill="rgba(63,114,165,1)"/>
 <path d="m21 68 0.63-1.9c0.34-1.05 1.36-2.29 2.25-2.75 1.35-0.71 1.5-1.81 0.12-12.35l2-9 1.67-4.25c0.91-2.34 1.59-5.26 1.33-8.75v-4l1-1.15c0.76-0.87 1.24-0.87 3 1.15v7 6l-2 6c-0.75 1.94-1.04 2.5-1.14 2.5-0.09 0-0.33 3.04-0.51 6.75l-0.35 6.75c0 2.34-0.9 3.79-2 4.73-2.38 2.04-2.59 3.67-0.51 4.02l1.51 0.25-0.75 1.48c-0.41 0.81-1.09 1.93-2.25 3.52l-0.87 1c-1.38 1.6-1.67 1.24-3.13-7z" fill="rgba(58,43,30,1)"/>
 <path d="m206 29-2-2-3.5-0.71c-2.77-0.57-3.5-1.19-3.5-5.29l4-1h10l18 1c2.71-0.01 3.61 0.67 3.75 1.49l0.25 1.51-3 2-1.84-0.25c-1.02-0.14-2.59 0.31-5.16 2.25h-2l-3.3-0.25c-1.81-0.14-4.06 0.09-6.7 1.25h-3-1z" fill="rgba(22,17,12,1)"/>
 <path d="m241 54 0.75-0.46c1.23-0.76 1.52-17.82-0.75-19.54l-1-13-3 1 1-9h2.2c3.26 0 3.52 0.63 5.8 21v10l-1 13v4 6 3c-3.76-1.24-4-2.21-4-8.66z" fill="rgba(114,89,68,1)"/>
 <path d="m197 208v-3l1.75-0.25c0.96-0.14 1.86-1.04 2.25-3.75l1.75-0.75c0.96-0.41 1.86-1.31 2.25-3.25 2.75 1.14 3.12 1.01 2.7 0.32-0.36-0.59 0.57-1.91 2.07-2.94 1.5-1.04 2.84-2.44 2.98-3.13l0.25-1.25v-1c7.88-1.24 10.58 3.06 5.75 7.85-1.24 1.23-3.15 3.33-4.25 4.68-1.1 1.34-2.56 2.9-3.25 3.46l-1.25 1.01-2 3z" fill="rgba(91,56,40,1)"/>
 <path d="m49 176-4-5v-4l-0.75-2.75c-0.41-1.51-1.31-2.64-3.25-2.25l-1-1 1-8 1.05 1.21c0.81 0.93 1.27 0.82 2.95-2.21v2.45c0 2.2 0.46 2.47 4.75 2.75 4.61 0.29 4.77 0.41 6.25 7.8 0.41 3.58 1.31 5.38 2.27 6.31l1.73 1.69h-3.5c-2.13 0-3.51-0.49-3.52-1.25-0.02-1.69-1.39-3.75-2.5-3.75-0.5 0-0.58 1.77 0.52 8h-1z" fill="rgba(58,142,193,1)"/>
 <path d="m28 145 2-10 1 0.25c0.55 0.14 1 1.94 1 4 0 3.33 0.28 3.75 5 3.75l0.25 1c0.14 0.55 1.04 1 2 1 1.38 0 1.75 0.86 1.75 8l-1 8-3 1-0.81-0.25c-3.58-1.1-7.33-3.71-6.74-4.68 0.39-0.63-0.13-2.81-1.17-4.86-1.19-2.36-1.59-4.35-0.28-7.21zm6.44 4c-0.79 0-1.44 0.9-1.44 2 0 1.33 0.67 2 2 2 1.1 0 2-0.49 2-1.1 0-1.76-1.01-2.9-2.56-2.9" fill="rgba(63,114,165,1)"/>
 <path d="m160 180 1-1c2.33 1.78 3 3.13 3 4.15 0 4.15 2.37 2.5 3.81-2.65 0.85-3.02 1.56-3.91 2.9-3.64 0.99 0.2 3.25-0.13 5.04-0.75l3.25-1.11 1.67-0.25c0.92-0.14 1.47-0.84 1.23-1.57-0.32-0.94-0.79-1.01-2.9 0.82l-2-3 1-2 3-2 1.07-0.75c0.59-0.41 1.04-3.56 0.93-13.25l1 2 1 11v5l1 10-1 4h-1l-0.61-2.89c-0.5-2.33-1.27-2.99-3.99-3.43-4.03-0.66-9.75 0.79-8.4 3.32-3.22 6.01-6.23 8.4-9.02 8.75l-1.98 0.25z" fill="rgba(86,89,96,1)"/>
 <path d="m36 65c1.57-3.44 2.79-4 5.26-4 3.44 0 3.44 0 4.09-6l0.65-6h2l0.67 5.75c0.79 6.7 0.77 6.68 2.79 5.9 1.1-0.42 1.54-2.01 1.54-5.62 0-3.8 0.37-5.03 3-5.03l2 7-1 4h-2c-1.11 0-2 0.67-2 3v5h-1.84c-1.01 0-2.14 0.9-3.16 4h-2c-8.29 0-7.02-3.62-1.44-4.46 6.6-0.99 5.15-2.98-2.39-3.29z" fill="rgba(22,17,12,1)"/>
 <path d="m29 25v-6c0-4.67-0.33-6-3-6-8.98 0-9-0.02-9-3.5 0-2.83-0.38-3.5-2-3.5-1.11 0-2 0.67-2 1.5s-0.89 1.5-2 1.5c-1.33 0-2-0.67-2-2v-2h27v4l-1.51 0.25c-0.82 0.14-1.5 1.26-1.49 4.75v2 7 2c-1.76-2.02-2.24-2.02-3-1.15z" fill="rgba(114,89,68,1)"/>
 <path d="m56 165c-1.48-7.39-1.64-7.51-6.25-7.8-4.29-0.28-4.75-0.55-4.75-2.75v-2.45-3.61c0-3.62 0-3.62 7-3.22 6.2 0.35 7 0.19 7-3.17 1.25 7 1.02 8.32-0.34 9.83-1.61 1.78-1.63 2.06-0.14 3.54 2.06 2.06 1.58 7.53-0.77 8.73z" fill="rgba(63,114,165,1)"/>
 <path d="m125 210v-4c-6.59-0.84-9.29-1.51-10.25-2.04l-1.75-0.96-0.75-2.13c-0.41-1.17-1.76-2.52-5.25-3.87l0.7-3.46c0.69-3.36-0.56-6.55-1.38-3.54-0.23 0.83-0.62 2.06-1.32 4l1-14 2-1c3.88 2.63 4.99 3.87 4.97 4.45-0.05 1.47-2.93 5.14-3.14 3.99-0.09-0.52-0.35 0.83-0.57 2.98-0.24 2.38 0.12 4.5 0.92 5.38 0.73 0.8 2.11 2.3 3.07 3.33l1.75 1.87c13.56 1.85 18.21 2.97 19.08 3.69s2.33 1.31 3.25 1.31c1 0 1.67 0.8 1.67 2v2h-2l-2 3-1.5-0.43c-0.97-0.28-1.5-1.68-1.5-4 0-1.96-0.23-3.57-0.5-3.57h-1c-0.27 0-0.5 0.98-0.5 2.18 0 1.57-0.7 2.27-5 2.82z" fill="rgba(58,43,30,1)"/>
 <path d="m202 137-1-8 1.75-1.63c2.74-2.54 2.97-10.37-1.75-10.37v-12h8v25c-1.16 2.67-2.74 4.25-4.25 5.22z" fill="rgba(45,132,201,1)"/>
 <path d="m196 177 1.59-2.7c1.3-2.21 1.35-2.81 0.25-3.25-0.74-0.3-1.23-1.11-0.84-3.05l2-3c8.88-8.91 12.03-11.61 12.73-11.75l1.27-0.25 8 2-1 1-1.25-0.2c-1.87-0.3-6.35 1.86-5.57 2.68 0.38 0.4 1.17 0.42 1.75 0.06 0.59-0.36 1.07-0.18 1.07 1.46l-1.51 0.25c-0.82 0.14-1.5 0.81-1.49 2.75z" fill="rgba(114,89,68,1)"/>
 <path d="m93 88c0.58-2.38 1.59-3.99 2.61-5.12 1.76-1.94 1.76-2.13 0.12-3.47l-1.73-1.41 3-2 0.75 1.22c0.41 0.67 1.31 0.9 3.25-0.22l22 1c-21.05 0-21.05 0-21.66 3.03-0.76 3.81-0.58 3.97 4.49 3.97h4.17c-1.66 1.44-3.68 1.6-5.57 1.3-3.43-0.56-3.43-0.56-3.43 5.07v5.63c-0.71 2.49-6.86 4.31-7.75 3.55-0.14-0.12-0.25-2.99-0.25-6.38z" fill="rgba(114,89,68,1)"/>
 <path d="m58 5h15c0 6.97 0.41 8 1.57 8 0.86 0 1.76 0.68 2 1.5l0.43 1.5-4 1c-6.61 0-8.28-0.57-9.05-1.75-1.1-1.67-1.17-1.67-1.62 0-0.3 1.09-1.45 1.75-3.05 1.75-2.56 0-2.57-0.05-1.93-6z" fill="rgba(178,165,147,1)"/>
 <path d="m215 5h22c0 3.51-5.55 9.05-9.03 10.61-5.92 2.65-8.15 1.22-11.72-7.54z" fill="rgba(178,165,147,1)"/>
 <path d="m113 236 3.04 0.7c2.48 0.58 3.31 0.3 5.96-3.7l3.92 0.75c2.15 0.41 4.63 1.31 7.08 3.25l-2 1-1.6-1.23c-1.28-0.98-2.33-0.9-5.25 0.37-3.24 1.42-3.45 1.72-0.15 3.86-5.82 3.99-18.45 4.92-22.34 3.42-3.83-1.47 0.11-6.25 5.49-6.66 2.74-0.2 5.19-0.69 5.42-1.07z" fill="rgba(58,43,30,1)"/>
 <path d="m225 75 0.75-1.07c0.41-0.59 2.44-1.04 8.25-0.93 7.23 1.07 10 5.16 10 10.65 0 6.11-2.1 7.59-4.79 3.37-1.23-1.92-4.6-4.62-8.15-6.52-3.33-1.78-6.06-3.74-6.06-4.37z" fill="rgba(22,17,12,1)"/>
 <path d="m162 84-1-3c-56.5-0.73-56.5-0.73-42.25-1.86l14.25-1.14 30-1 2 5-2 2z" fill="rgba(206,155,61,1)"/>
 <path d="m41 153c0-7.14-0.37-8-1.75-8-0.96 0-1.86-0.45-2-1l-0.25-1v-1c0-0.55 0.9-1 2-1 1.78 0 2-0.67 2-12h4c0.5 11.5 0.5 11.5 7.25 11.25l6.75-0.25v2c0 3.36-0.8 3.52-7 3.17-7-0.4-7-0.4-7 3.22v3.61c-1.68 3.03-2.14 3.14-2.95 2.21z" fill="rgba(53,221,244,1)"/>
 <path d="m158 156c1.49-17.07 3.82-23.29 7.13-22.62 1.67 0.33 3.79 1.51 4.7 2.63 0.92 1.11 2.23 2.01 2.92 2l1.25-0.01c-2.4 7.79-4.03 10.83-5.16 11.78-2.03 1.7-2.04 1.69-0.76-1.54 2.25-5.69-0.36-6.68-3.28-1.24-1.33 2.48-3.41 5.51-4.61 6.75z" fill="rgba(58,43,30,1)"/>
 <path d="m121 221v-4-1-2l1.25 0.99c0.92 0.74 1.45 0.22 2.75-4.99 4.3-0.55 5-1.25 5-2.82 0-1.2 0.23-2.18 0.5-2.18h1c0.27 0 0.5 1.61 0.5 3.57 0 2.32 0.53 3.72 1.5 4l1.5 0.43 2 2-3 6-1.43 2.1c-1.5 2.2-3.57 1.82-3.57-0.66 0-1.67-4.54-2-5.53-0.39-0.45 0.73-0.92 0.73-2.47-1.05z" fill="rgba(165,124,71,1)"/>
 <path d="m137 97c-0.62-5.04-0.96-7.16-1.15-7.97-0.38-1.61 1.06-1.64 9.65-0.2 5.38 0.9 11.84 4.47 12.25 6.76l0.25 1.41z" fill="rgba(221,188,114,1)"/>
 <path d="m30 135c-1.12-0.69-1.35-2.27-1.22-3.95l0.22-3.05h3l1.42 1.92c1.79 2.4 3.81 0.47 5.58-7.92h2v3 4c0 11.33-0.22 12-2 12-1.1 0-2 0.45-2 1v1c-4.72 0-5-0.42-5-3.75 0-2.06-0.45-3.86-1-4z" fill="rgba(86,89,96,1)"/>
 <path d="m233 71v-10-7c0.09-8.14 0.09-12.41 0.06-14.75l-0.06-4.25c1.81 0.4 2.64-1.69 3.14-4.75l0.86-5.25v4 39c0.67 2.32 1.68 3.08 2.68 3.18s0.13 0.32-1.93 0.5l-3.75 0.32z" fill="rgba(178,165,147,1)"/>
 <path d="m248 99-3-5v-9c4.74-0.87 6.21 1.26 5.46 4.65-0.62 2.85-0.62 2.85 1.34 0.43 1.29-1.58 2.52-2.19 3.58-1.75l1.62 0.67c0 10.7-0.31 11.71-2 12.3l-2 0.7c-1.89 0-3.02-0.67-3.72-1.5z" fill="rgba(191,183,170,1)"/>
 <path d="m85 43v-11l0.75-4.01c0.46-2.48 1.61-4.59 5.25-6.99h1l0.75 0.25c0.41 0.14 0.64 1.49 0.25 5.75l-1.25 1.58c-3.89 4.92-3.57 7.44 3.25 3.42l-3 12c-2.32 0-3-0.68-3-1.5 0-1.7-1.83-2-3.13-0.5z" fill="rgba(114,89,68,1)"/>
 <path d="m37 87-4-2 1.7-0.94c1.46-0.81 1.26-1.16-4.7-4.06l-2.75-0.42c-1.51-0.23-3.09-0.45-4.25-0.58l-2 3-1.21-0.91c-0.66-0.5-1.56-3.2-2.79-11.09v-2h4c1.46 8.24 1.75 8.6 3.13 7l0.87-1c0 3.06 6.15 4.45 7.23 3.02l0.77-1.02 1.25-0.75c0.69-0.41 1.81-0.64 3.75-0.25 0.43 3.9 1.23 4.57 3.25 4.75l2.75 0.25 5 1c-9.3 0.39-12 0.61-12 0.75v0.71c0 0.25 2.06 1.16 4.57 2.01 2.52 0.86 4.77 2.23 5 3.04l0.43 1.49-1.75-1.2c-3.35-2.3-6.5-3.12-8.25-0.8zm-0.89-9.29c-0.8-0.8-1.41-0.81-2.2-0.02-0.6 0.6-0.83 1.59-0.5 2.2 0.32 0.61 1.15 1.11 1.84 1.11 1.71 0 2.22-1.93 0.86-3.29" fill="rgba(96,63,28,1)"/>
 <path d="m257 173v-7-5-3l4-1v40l-2-0.78c-1.83-0.72-2-1.71-2-23.22z" fill="rgba(22,17,12,1)"/>
 <path d="m9 41-4-1v-15c3.49-2.62 5.29-3.52 6.25-3.69l1.75-0.31 1 8-1 12z" fill="rgba(114,89,68,1)"/>
 <path d="m39 17-1.25-1.5c-0.69-0.82-1.14-2.62-0.75-6.5v-4h9l1.25 1.74c1.94 2.7 2.13 8.68-1.25 10.26h-1-4z" fill="rgba(191,183,170,1)"/>
 <path d="m115 233-0.78-3.25c-0.43-1.79-1.78-3.81-5.22-5.75v-3c1.26-2.71 3.17-3.35 6.75-3.61l5.25-0.39v4 8 1l-1.75 1.22c-0.96 0.67-2.31 1.34-4.25 1.78z" fill="rgba(22,17,12,1)"/>
 <path d="m172 45-1-4 0.75-1.8c0.41-0.99 1.76-2.12 5.25-3.2l4 2 0.75 1.75c0.42 0.97 2.08 1.9 3.75 2.08 1.65 0.19 3.34 0.97 4.5 3.17-7.65-0.35-8.45-0.01-9.15 1.88-0.99 2.66-4.37 2.6-7.1-0.13z" fill="rgba(96,63,28,1)"/>
 <path d="m237 68v-39-5-2l3-1c0 45.17-0.19 48.16-1.5 47.62z" fill="rgba(22,17,12,1)"/>
 <path d="m162 213-0.75-1.91c-0.95-2.42-5.56-6.09-9.25-6.09-6.37 0.09-8.28-0.02-8.36-0.19s-0.25-0.87-0.39-1.56l-0.25-1.25 2.67-0.25c3.2-0.3 4.46-2.75-0.67-2.75l5-1 1-1h5c1.55 8.62 3.63 10.27 5.1 7.62l0.9-1.62 1.79 1.69c0.99 0.93 2.31 1.36 2.95 0.97s1.41-0.25 2.26 1.34v1h-2c-1.11 0-2 0.67-2 3z" fill="rgba(58,142,193,1)"/>
 <path d="m121 229v-8c1.55 1.78 2.02 1.78 2.47 1.05 0.99-1.61 5.53-1.28 5.53 0.39 0 2.48 2.07 2.86 3.57 0.66l1.43-2.1v2.5c0 2.83 1.66 3.22 4.26 1 0.97-0.82 2.32-1.52 3-1.55s2.03-1.38 4.74-5.95l-0.77 3.61c-0.42 1.98-1.55 4-4.23 5.39l-8 3z" fill="rgba(58,43,30,1)"/>
 <path d="m189 166v-10-11c3.49 0.52 5.06 1.19 5.75 1.83l1.25 1.17v1l-1 4-1.25-0.25c-0.69-0.14-1.19 0.43-1.12 1.25 0.08 0.83 0.41 1.39 1.37 1 0.96 1.33 1.41 2.91 1.62 4.36l0.38 2.64-3 4-0.94 0.5c-0.51 0.28-1.07 1.96-1.25 3.75-0.31 3.25-0.31 3.25-1.81-4.25z" fill="rgba(114,89,68,1)"/>
 <path d="m37 119c-0.8-2.81-0.12-4.15 1.24-5.18 2.05-1.55 2.14-1.98 1-4.99-0.68-1.81-1.24-3.36-1.24-3.44 0-1.11 4.79-0.89 6.39 0.29 1.27 0.95 3 1.32 4.36 0.94l2.25-0.62 1.25 1.97c0.87 1.37 1.63 1.67 3.75 0.03v1l-4 3-3.25 1.94c-1.79 1.07-3.81 1.71-4.5 1.42-0.68-0.29-2.59 0.41-7.25 3.64zm6.73-10.4c-1.33 1.33-0.76 2.99 1.27 3.7 1.1 0.38 2.45 0.7 3 0.7s1-0.24 1-0.53-0.83-0.86-1.85-1.25c-1.01-0.4-2.03-1.31-2.27-2.03-0.23-0.72-0.75-0.99-1.15-0.59" fill="rgba(68,66,73,1)"/>
 <path d="m245 61v-4l1-1h3l2.25-1.09c1.24-0.6 3.04-0.82 5.75 0.09v6 4l-4 1-1.75 0.25c-2.16 0.31-4.51-1.18-6.25-5.25z" fill="rgba(191,183,170,1)"/>
 <path d="m141 233v-7c2.68-1.39 3.81-3.41 4.23-5.39l0.77-3.61h1l1.19 0.28c0.66 0.16 0.9 0.77 0.53 1.36-0.37 0.6-0.23 2.05 1.28 5.36l-1 13z" fill="rgba(165,124,71,1)"/>
 <path d="m245 57 1-13h1l9 1 0.75 2.25c0.41 1.24 0.64 3.49 0.25 7.75-2.71-0.91-4.51-0.69-5.75-0.09l-2.25 1.09-0.96-1.25c-0.77-1-1.07-1-2.04 1.25z" fill="rgba(178,165,147,1)"/>
 <path d="m41 122h-2l-1-1-1-2c4.66-3.23 6.57-3.93 7.25-3.64 0.69 0.29 2.71-0.35 4.5-1.42l3.25-1.94c3.49 2.12 4.39 3.24 4.25 3.87l-0.25 1.13-2 1-2 3c-0.74 1.16-3.22 1.39-5.98 1.25z" fill="rgba(51,58,66,1)"/>
 <path d="m205 50c-7.84-1.4-8-1.58-8-5.21v-3.79h4 1l-0.25 1.75c-0.17 1.17 0.33 1.67 3.25 1.25l3 1 1-7 2-0.7c1.86-0.65 2-0.27 2 11.7h-3z" fill="rgba(165,124,71,1)"/>
 <path d="m190 45c-1.16-2.2-2.85-2.98-4.5-3.17-1.67-0.18-3.33-1.11-3.75-2.08l-0.75-1.75v-3c3.65 0.39 5.22-0.06 5.85-0.75l1.15-1.25c0 1.55 1.46 1.97 3.25 1.93s3.81 0.41 4.5 1l1.25 1.07 1.75 0.89c1.53 0.78 1.41 1.03-3.75 3.11-1.55 0-2 0.79-1.99 1.75 0 0.96-0.68 1.86-1.5 2z" fill="rgba(165,124,71,1)"/>
 <path d="m63 140 1.5 0.43c1.09 0.31 1.5-0.37 1.5-5.43h3v6l-1 4-2 4-0.56 1.25c-0.31 0.69-0.76 2.71-1.44 7.75 0 4.34-0.4 4.79-1.63 4.31-1.65-0.63-1.67-19.12-0.02-21.41z" fill="rgba(58,43,30,1)"/>
 <path d="m34 169-0.85-1.25c-0.46-0.69-1.14-0.91-2.15 0.25l-2.02-7.25c-1.11-3.99-2.12-7.57-2.25-7.97-0.13-0.39-0.57-0.51-1.73 0.22-3.13-4.35-4.21-9.93-3.3-10.97 0.22-0.26 0.83 0.19 1.34 1s0.94 1.06 0.94 0.57c0.01-0.5 0.47-0.39 1.02 0.25l1 1.15h2c-1.31 2.86-0.91 4.85 0.28 7.21 1.04 2.05 1.56 4.23 1.17 4.86-0.59 0.97 3.16 3.58 6.74 4.68l0.81 0.25c0.01 5.37-0.51 6.59-1.49 6.75z" fill="rgba(86,89,96,1)"/>
 <path d="m5 141v-28c3.39 0 4.73 7.44 4.23 17.75-0.44 9.16-0.7 10.25-2.36 10.25z" fill="rgba(114,89,68,1)"/>
 <path d="m53 202c2.33-1.09 3.04-2.1 3.09-2.95 0.04-0.85 0.47-0.27 0.94 1.3 0.83 2.78 3.11 3.28 3.69 0.83l0.28-1.18-1-7h8l-0.25 3.8c-0.14 2.09-1.04 4.79-3.75 8.2-7.36 0.43-8.84 0.03-9.75-1.25z" fill="rgba(221,188,114,1)"/>
 <path d="m220 62-2-1 1.25-0.34c0.69-0.18 1.14-0.86 0.75-2.66v-3.17c0-3.2-0.74-4.88-2-2.83l-1.67-1.75c-1.11-1.15-1.45-2.52-0.33-6.25l1-12c1.43 1.65 2.15 2.1 2.52 2.06s0.84 4.1 1.05 9.19c0.29 6.96 0.76 9.5 1.93 10.25 1.38 0.89 1.39 1.04 0.03 1.32-1.2 0.26-1.39 1.19-0.88 4.37 0.46 2.89 0.32 3.86-0.5 3.42z" fill="rgba(114,89,68,1)"/>
 <path d="m134 221 2-4 4-4 1-2c2.01 1.2 3.59 1.87 4.8 2.27l2.2 0.73-1 2v1h-1c-2.71 4.57-4.06 5.92-4.74 5.95s-2.03 0.73-3 1.55c-2.6 2.22-4.26 1.83-4.26-1z" fill="rgba(22,17,12,1)"/>
 <path d="m64 158c0.68-5.04 1.13-7.06 1.44-7.75l0.56-1.25c7.09 0.15 7.31 0.34 6.68 2.58l-0.68 2.42-1.42-1.74c-0.79-0.96-1.71-1.47-2.05-1.12-0.34 0.34 0.3 1.35 3.47 3.86-1.55 1.12-1.96 2.13-1.92 2.97 0.05 1.03 0.24 1.12 0.58 0.28 0.92-2.28 1.63-1.3 1.99 2.75l0.35 4c-5.24-0.83-6.51-2.03-8.37-5.75z" fill="rgba(114,89,68,1)"/>
 <path d="m189 28c0.46-17.94 0.78-19.62 2.25-20.25l1.75-0.75v15 6c0 5.33-0.44 6-2 6s-2-0.67-2-3z" fill="rgba(22,17,12,1)"/>
 <path d="m221 77 0.43-0.69c0.24-0.39 0.01-1.06-1.43-2.31h1c1.12-1.55 3.03-2 4.97-2 3.53 0 3.53 0 3.22-7.75-0.29-7.41 1.03-12.04 3.06-10.73l0.75 0.48v7 10l1 1v1c-5.81-0.11-7.84 0.34-8.25 0.93l-0.75 1.07c-1.52 4.75-1.79 4.88-2.82 3.55z" fill="rgba(114,89,68,1)"/>
 <path d="m26 42c1.07-5.91 0.99-6.01-0.98-4.79-2.82 1.75-3.98-0.17-4-6.63-0.01-3.14-0.61-5.58-1.66-6.73-1.51-1.67-1.51-1.86 0.02-2.44 3.25-1.25 5.11 0.15 5.88 4.43l0.74 4.16 0.9 3.25c0.91 3.25 0.91 3.25 1.1-4.25h1c0.26 3.49-0.42 6.41-1.33 8.75z" fill="rgba(114,89,68,1)"/>
 <path d="m37 87c1.75-2.32 4.9-1.5 8.25 0.8l1.75 1.2 1 3 1.92 1.25c1.06 0.69 2.19 0.91 3.08-0.25h1l2 3v1l-1.51 0.25c-0.82 0.14-1.5 0.81-1.49 2.75-2.8 1.16-3.35 0.64-3.72-1.33-0.28-1.47-1.14-2.67-1.9-2.67s-1.38-0.67-1.38-1.5c0-0.87-0.9-1.5-2.14-1.5-1.2 0-3.19-1.33-4.5-3z" fill="rgba(170,114,48,1)"/>
 <path d="m169 41-0.25-0.94c-0.14-0.51-1.15-0.85-2.25-0.75-1.14 0.11-1.89-0.35-1.5-2.31h2c1.33 0 2-0.67 2-4 0-3.2 0.7-4.04 1.75-4.09 0.96-0.05 2.76-0.95 4-2l2.25-1.91v8 3c-3.49 1.08-4.84 2.21-5.25 3.2l-0.75 1.8z" fill="rgba(153,122,96,1)"/>
 <path d="m40 41h1v-15-2-7h4v5 20l-3 2z" fill="rgba(178,165,147,1)"/>
 <path d="m234.76 205.26c-0.67 0.13-1.37-0.79-1.56-2.05-0.34-2.25-0.19-2.29 7.47-2 6.16 0.23 7.83 0.61 7.83 1.79 0 0.83-0.67 1.5-1.5 1.5-0.82 0-1.66 0.45-1.87 1-0.2 0.55-1.07 1.56-1.94 2.25-0.86 0.69-2.39 1.25-3.38 1.25-1 0-2.27-0.9-2.83-1.99-0.56-1.1-1.56-1.89-2.22-1.75" fill="rgba(153,122,96,1)"/>
 <path d="m217 149c0-6.73 0.38-7.35 2.5-7.76 1.61-0.3 2.5-1.14 2.5-2.36 0-1.03 0.23-1.88 0.5-1.88h0.88c0.21 0 0.61 1.19 0.89 2.65 0.39 2.03 0.92 2.49 2.26 1.98 0.97-0.37 1.96-0.47 2.21-0.22 0.72 0.72-0.73 2.59-2.05 2.63-0.65 0.02-1.75 2.04-2.44 4.5l-1.25 4.46-0.43-1.75c-0.24-0.99-1.53-1.85-5.57-2.25z" fill="rgba(114,89,68,1)"/>
 <path d="m133 237c-2.45-1.94-4.93-2.84-7.08-3.25l-3.92-0.75-1-3v-1h12l2.25 0.72c3 0.95 3 0.95 1.75 3.28 0 3.33-0.67 4-2 4z" fill="rgba(165,124,71,1)"/>
 <path d="m197 137c0.39-2.71 1.06-3.65 1.75-3.82 0.77-0.2 1.25-2.06 1.25-4.81 0-2.47-0.41-4.24-0.9-3.93-1.83 1.13-2.03 0.45-1.59-5.19 0.25-3.16 0.46-7.44 0.47-9.5l0.02-3.75 2-1h1v12 12l1 8z" fill="rgba(86,89,96,1)"/>
 <path d="m164 17 0.25-1.66c0.14-0.91-0.31-1.81-2.25-2.34l-2-4c0.98-0.61 1.43-1.51 1.63-2.39l0.37-1.61h6c-0.31 5.42 0.14 7.54 0.8 8.2s1.2 1.86 1.2 2.67c0 0.8-0.33 1.14-0.73 0.73-1.58-1.57-1.41 1.75 0.18 3.61 2.83 3.31 0.87 3.23-2.4-0.1z" fill="rgba(153,122,96,1)"/>
 <path d="m141 28h3l3 3 4 3v3c-14.52 0-15.75-1.05-12-4.27 1.1-0.94 2-2.39 2-3.22z" fill="rgba(206,155,61,1)"/>
 <path d="m117 5h7c1.84 16.5-5.25 13.34-6.57 3.25z" fill="rgba(114,89,68,1)"/>
 <path d="m59 185v-1c3.1 0.44 3.57-0.33 3.8-3.12 0.25-2.98 0.7-3.63 2.5-3.63 1.88 0 2.17 0.49 1.95 3.38l-0.25 3.37c2.38 5.21 1.45 6-3.56 6-4.07 0-4.44-0.21-4.44-2.5z" fill="rgba(51,58,66,1)"/>
 <path d="m189 57v2c0 1.33 0.67 2 4 2l1 3-1 2c-6.92-1.23-7.94-1.92-8.27-3.65-0.39-2.02-0.85-2.2-4.19-1.66-3.3 0.53-3.7 0.38-3.38-1.29 0.3-1.57 1.37-1.94 6.1-2.15z" fill="rgba(96,63,28,1)"/>
 <path d="m97 32v-3-1-23h4l-1 7 1 11-1 9z" fill="rgba(58,43,30,1)"/>
 <path d="m86 117c-2.71-1.16-3.61-2.06-3.75-2.75l-0.25-1.25c25.45 0.99 28.51 1.45 26.72 2.55l-0.72 0.45h-5l-5 1z" fill="rgba(96,63,28,1)"/>
 <path d="m216 53-3-3v-1c0-11.97-0.14-12.35-2-11.7l-2 0.7-1-9h3l1.5 1.28c1.04 0.88 1.5 3.21 1.5 7.5 0 3.48 0.44 6.22 2 6.22-1.12 3.73-0.78 5.1 0.33 6.25l1.67 1.75v6 3z" fill="rgba(96,63,28,1)"/>
 <path d="m45 22v-5h1l1.5 0.43c0.83 0.24 1.5 1.11 1.5 1.94 0 2.27 2.08 3.1 4-0.37v13c-1.19 6.48-3.46 3.31-4.48-3.58-0.68-4.59-1.44-6.84-2.27-6.67z" fill="rgba(153,122,96,1)"/>
 <path d="m122 176 3-6c7.43-2.25 8.56-1.49 8.37 2.58-0.22 4.7-0.58 4.92-6.4 4.11z" fill="rgba(96,63,28,1)"/>
 <path d="m246 44v-10l-0.3-10.31c-0.17-5.95-0.8-11.03-2.7-13.69 6.3-1.19 6.27-1.29 5.6 8.93l-0.6 9.07v1l-1 5v10z" fill="rgba(239,216,142,1)"/>
 <path d="m46 17c3.38-1.58 3.19-7.56 1.25-10.26l-1.25-1.74h7v5 9c-1.92 3.47-4 2.64-4 0.37 0-0.83-0.67-1.7-1.5-1.94z" fill="rgba(178,165,147,1)"/>
 <path d="m149 237 1-13 0.83 0.6c0.46 0.33 1.58-0.15 2.5-1.07 1.56-1.56 1.67-1.54 1.67 2.47l2 4v3l-1.5-2.02c-1.43-1.92-2.3 0.93-1.5 6.02-2.71-1.22-3.84-1.22-4.25-0.79z" fill="rgba(58,43,30,1)"/>
 <path d="m5 56v-6h7c-0.04 13.79-0.98 14.72-4.28 9.95z" fill="rgba(178,165,147,1)"/>
 <path d="m5 50v-9h4 4v9h-1z" fill="rgba(191,183,170,1)"/>
 <path d="m171 209-2-1v-1l1.18-0.63c0.87-0.47 0.8-0.93-0.25-1.76-0.79-0.61-1.54-1.68-1.93-3.61l3-4h3 2 1c-0.59 5.34-1.86 7.88-3.37 9.39z" fill="rgba(114,89,68,1)"/>
 <path d="m160 225-0.25-1.43c-0.14-0.79-0.81-1.91-2.75-3.57l4-4c5.01-2.32 6.51-3 6.56-3 0.06 0 0.14 0.68 0.19 1.5 0.05 0.83 0.12 1.76 0.17 2.08 0.04 0.32-0.48 0.36-1.17 0.08s-1.36-0.54-1.5-0.58-0.25 0.86-0.25 2.01c0 1.26 0.8 2.31 2 2.62 3.1 0.81 2.37 4.29-0.9 4.29-0.61 0-1.1-0.9-1.1-2 0-3-3.29-2.55-3.68 0.5l-0.32 2.5z" fill="rgba(58,43,30,1)"/>
 <path d="m17 68v-10c1.86 5.8 2.3 5.26 5.37-2.75l1.63-4.25c1.38 10.54 1.23 11.64-0.12 12.35-0.89 0.46-1.91 1.7-2.25 2.75l-0.63 1.9z" fill="rgba(114,89,68,1)"/>
 <path d="m33 23v-7l1.5-0.25c1.95-0.33 1.95-1.75-1.5-1.75-0.01-3.49 0.67-4.61 1.49-4.75l1.51-0.25h1c-0.39 3.88 0.06 5.68 0.75 6.5l1.25 1.5-2 1v7l-0.7 3.25c-1.2 5.53-1.5 5.37-3.3-5.25z" fill="rgba(178,165,147,1)"/>
 <path d="m49 200-4-4c0.53-10.92 2.42-12.66 3.97-8.58 0.54 1.42 1.65 2.58 2.46 2.58 0.82 0 1.61 0.79 1.78 1.75 0.19 1.18-0.36 1.75-1.71 1.75-2.42 0-2.99 1.62-1.56 4.42l1.06 2.08z" fill="rgba(114,89,68,1)"/>
 <path d="m153 40h2c1.47 0 2-0.67 2-5v-2h4v4l2.25 2.14c1.24 1.17 3.04 2.07 5.75 1.86h2l1 4c-3.89-1.25-5.58-1.25-6.26-0.82-3.01 1.92-4.15 0.78-5.91-5.93-0.55-2.07-1.83-1.4-1.83 0.95 0 1.88-0.38 2.1-2.5 1.5z" fill="rgba(114,89,68,1)"/>
 <path d="m113 213-1-4h1c2.16 0.89 3.09 0.67 3.45 0.08 0.37-0.6 1.88-1.06 3.36-1.04s3.25-0.43 3.94-1l1.25-1.04v4c-1.3 5.21-1.83 5.73-2.75 4.99l-1.25-0.99-1-5-2 1-1 3v3c-3.61 1.27-4 0.97-4-0.8z" fill="rgba(206,155,61,1)"/>
 <path d="m51 106 2-6c-0.01-1.94 0.67-2.61 1.49-2.75l1.51-0.25c4.14-2.47 4.46 1.07 2.09 4.53-1.11 1.64-2.04 3.76-2.06 4.72l-0.03 1.75c-2.12 1.64-2.88 1.34-3.75-0.03z" fill="rgba(22,17,12,1)"/>
 <path d="m37 40v-2-5-1-14l2-1h2v7l-1 5 1 5v7h-1-2z" fill="rgba(58,43,30,1)"/>
 <path d="m131 29c-1.55 0-2-0.79-1.99-1.75 0-0.96-0.68-1.86-1.5-2l-1.51-0.25c-1.19-1.78-0.68-2.57 0.5-3.05 3.2-1.3 6.5-1.08 6.5 0.43 0 0.76 0.91 1.99 2.02 2.75 1.1 0.75 2 1.93 2 2.62l-0.02 1.25-1 2z" fill="rgba(221,188,114,1)"/>
 <path d="m155 226c0-4.01-0.11-4.03-1.67-2.47-0.92 0.92-2.04 1.4-2.5 1.07l-0.83-0.6c-1.51-3.31-1.65-4.76-1.28-5.36 0.37-0.59 0.13-1.2-0.53-1.36l-1.19-0.28v-1h5l1.43 2.25c0.79 1.24 1.92 2.14 3.57 1.75 1.94 1.66 2.61 2.78 2.75 3.57l0.25 1.43-1.5-0.43c-0.82-0.24-1.5-0.01-1.5 1.43z" fill="rgba(114,89,68,1)"/>
 <path d="m233 167c0-8.14 8.9-11.51 9.75-7.25l0.25 1.25-1 3-4 2-0.61-1.13c-0.42-0.8-1.18-0.64-4.39 2.13z" fill="rgba(91,56,40,1)"/>
 <path d="m218 30 3-2h2l3.25-0.77c1.79-0.42 3.36-0.87 3.75-1.23l3-2v9c-3.87 0-5.01 0.56-5.01 1.25-0.01 0.69-0.59 0.13-1.28-1.25-0.96-1.9-2.15-2.56-4.98-2.75z" fill="rgba(114,89,68,1)"/>
 <path d="m81 35-1-10 0.65-2.75c0.36-1.51 1.04-3.09 2.35-4.25 3.51 3.3 4.57 3.65 5.13 3l0.87-1 2 1c-3.64 2.4-4.79 4.51-5.25 6.99l-0.75 4.01-0.72-2.25c-0.91-2.88-0.83-2.75-1.61-2.75-0.37 0-0.67 1.8-0.67 8z" fill="rgba(175,147,117,1)"/>
 <path d="m152 212v-7c3.69 0 8.3 3.67 9.25 6.09l0.75 1.91h-2l-7 1z" fill="rgba(86,89,96,1)"/>
 <path d="m259 213-0.25-7.04c-0.14-3.87-0.59-7.25-1.75-7.96l-1-25h1c0 21.51 0.17 22.5 2 23.22l2 0.78v15z" fill="rgba(58,43,30,1)"/>
 <path d="m257 61v-6c0.39-4.26 0.16-6.51-0.25-7.75l-0.75-2.25h5v16h-3z" fill="rgba(142,137,124,1)"/>
 <path d="m113 34v3l1 4c-4.26-0.62-6.29-0.85-7.25-0.9-1.22-0.07-1.75-0.94-1.75-2.86 0-3.51 3.22-5.78 6.05-4.28z" fill="rgba(114,89,68,1)"/>
 <path d="m11 195-1 58c-1.33-48.43-1.22-54.89-0.25-56.25z" fill="rgba(58,43,30,1)"/>
 <path d="m27 169 1.12-0.26c0.61-0.15 0.95-0.94 0.75-1.75-0.3-1.19-0.62-1.24-2.87 1.01l-1-3v-4-8c1.16-0.73 1.6-0.61 1.73-0.22 0.13 0.4 1.14 3.98 2.25 7.97l2.02 7.25-1 2z" fill="rgba(58,43,30,1)"/>
 <path d="m21 83v-1l2-3 1.94 1.75c1.59 1.43 2.23 1.52 5.06-0.75 5.96 2.9 6.16 3.25 4.7 4.06l-1.7 0.94-5 2z" fill="rgba(153,122,96,1)"/>
 <path d="m44 80 1-2 0.9 0.25c0.5 0.14 2.21-0.99 3.81-2.5 1.59-1.51 3.57-2.75 4.39-2.75s1.81-0.68 2.9-3l1 4-0.75 0.8c-0.41 0.44-1.31 1.12-3.25 2.2-1.09 3.1-2.21 4-3.2 4h-1.8z" fill="rgba(165,124,71,1)"/>
 <path d="m188 180v-4l1-10c1.5 7.5 1.5 7.5 1.81 4.25 0.18-1.79 0.74-3.47 1.25-3.75l0.94-0.5-0.43 1.5c-0.24 0.83-0.01 1.5 1.43 1.5l-0.55 4c-0.34 2.47-0.14 4 1.55 4-1.26 0.91-1.04 1.81-0.32 2.59l1.32 1.41-2 2-1.38-2.25c-0.76-1.24-1.18-2.58-0.94-2.99 0.23-0.41-0.03-1.54-0.6-2.5-0.85-1.46-1.02-1.21-1.05 1.49-0.02 1.79-0.48 3.25-2.03 3.25z" fill="rgba(114,107,99,1)"/>
 <path d="m214 65-1-8v-4h3l2 8 2 1-2 3z" fill="rgba(206,155,61,1)"/>
 <path d="m211 29c2.64-1.16 4.89-1.39 6.7-1.25l3.3 0.25-3 2-1 2-1 12c-1.56 0-2-2.74-2-6.22 0-4.29-0.46-6.62-1.5-7.5z" fill="rgba(58,43,30,1)"/>
 <path d="m81 42 1-7c0-6.2 0.3-8 0.67-8 0.78 0 0.7-0.13 1.61 2.75l0.72 2.25v11l-2 2z" fill="rgba(221,188,114,1)"/>
 <path d="m17 198v4 6c-1.45 0.78-2.06 1-2.31 1-0.72 0-1.86-13.92-1.22-14.95 0.95-1.53 3.53-0.02 3.53 2.06z" fill="rgba(175,147,117,1)"/>
 <path d="m123 170-1 1c-1.84 0-1.99-0.74-1.54-1.95 0.48-1.31 0.03-2.85-1.37-4.65-2.26-2.92-2.65-6.92-2.01-20.9 0.34-7.6 0.4-7.34 1.09 5 0.56 9.95 1.22 14 2.78 17.25z" fill="rgba(51,58,66,1)"/>
 <path d="m48 49 8 1c-2.63 0-3 1.23-3 5.03 0 3.61-0.44 5.2-1.54 5.62-2.02 0.78-2 0.8-2.79-5.9z" fill="rgba(96,63,28,1)"/>
 <path d="m29 180 4-2c3.1 3.1 4 4.68 4 5.5v1.5c-0.55 3.76-7.28-1.08-7.75-3.65z" fill="rgba(22,17,12,1)"/>
 <path d="m193 66 1-2 1.23 1.61c1.08 1.41 1.33 1.22 2.77-4.61l2-3h1l1 8 0.43 0.69c0.24 0.39 0.01 1.06-1.43 2.31-5.2 0.05-6.8-0.54-7.25-1.47z" fill="rgba(165,124,71,1)"/>
 <path d="m45 78 1-4 0.4 1.25c0.25 0.8 0.61 0.62 1.6-2.25 1.02-3.1 2.15-4 3.16-4h1.84 4v1c-1.09 2.32-2.08 3-2.9 3s-2.8 1.24-4.39 2.75c-1.6 1.51-3.31 2.64-3.81 2.5z" fill="rgba(206,155,61,1)"/>
 <path d="m179 187v-4c-2.75-3.24-3.34-3.32-5.49-2.25l-2.51 1.25c-1.35-2.53 4.37-3.98 8.4-3.32 2.72 0.44 3.49 1.1 3.99 3.43l0.61 2.89-3 2z" fill="rgba(63,114,165,1)"/>
 <path d="m185 187v-2l1-4 2-1c1.55 0 2.01-1.46 2.03-3.25 0.03-2.7 0.2-2.95 1.05-1.49 0.57 0.96 0.83 2.09 0.6 2.5-0.24 0.41 0.18 1.75 0.94 2.99l1.38 2.25-1 2-2.75 0.25c-1.51 0.14-3.31 0.59-5.25 1.75z" fill="rgba(114,89,68,1)"/>
 <path d="m210 67-1-5-3-4h-1v-1h1 3 4l1 8-0.84 1.62c-0.46 0.89-1.36 1.34-3.16 0.38z" fill="rgba(165,124,71,1)"/>
 <path d="m177 9h3c1.41 11.76 1.35 12-0.79 12-2.06 0-2.23-0.46-2.22-6z" fill="rgba(58,43,30,1)"/>
 <path d="m105 229v-1l1.75-0.25c0.96-0.14 1.86-1.04 2.25-3.75 3.44 1.94 4.79 3.96 5.22 5.75l0.78 3.25-2 2c-3.01-1.94-3.91-3.29-3.94-4.25-0.04-1.06-0.84-1.75-2.06-1.75z" fill="rgba(58,43,30,1)"/>
 <path d="m17 89v-19c1.23 7.89 2.13 10.59 2.79 11.09l1.21 0.91v1l3 3-0.75 1.24c-0.41 0.69-1.45 0.96-2.31 0.61s-2.1-0.24-3.94 1.15z" fill="rgba(58,43,30,1)"/>
 <path d="m93 27 0.95-1.75c0.52-0.96 1.2-2.54 2.05-5.25l1 8v1l-2 3c-6.82 4.02-7.14 1.5-3.25-3.42z" fill="rgba(175,147,117,1)"/>
 <path d="m65 206-1-1c2.71-3.41 3.61-6.11 3.75-8.2l0.25-3.8c1.4 7.84 1.58 8 5.21 8h3.79l-4 2c0 1.46-1.46 2.06-3.25 2.28s-3.36 0.7-3.5 1.06l-0.25 0.66z" fill="rgba(114,89,68,1)"/>
 <path d="m74 21-1-4 4-1c2.04 1.55 2.62 1.55 2.84 0.94 0.21-0.59 0.86-0.58 1.75 0.05l1.41 1.01c-1.31 1.16-1.99 2.74-2.35 4.25l-0.65 2.75c-2.62-2.71-3.97-3.61-4.69-3.75z" fill="rgba(153,122,96,1)"/>
 <path d="m170 104c0 5.46 0.39 6.07 1.75 5.81 1.52-0.29 1.82-1.94 2.25-12.49 0.44-10.68 1.64-16.36 2.66-12.57l0.34 1.25v2c-1.16-0.72-1.72 4.31-2 10.73-0.49 11.45-0.54 11.67-3 12.22-2.35 0.52-2.49 0.33-2.25-3.2z" fill="rgba(68,66,73,1)"/>
 <path d="m152 216 1-2 7-1 1 3-4 4c-1.65 0.39-2.78-0.51-3.57-1.75z" fill="rgba(114,107,99,1)"/>
 <path d="m257 65 1-4h3v11c-3.63 1.5-4 0.91-4-3.33z" fill="rgba(114,89,68,1)"/>
 <path d="m146 17-1-12h8c0 1.6-1.01 2.44-2.25 2.89-1.92 0.71-2.29 1.65-2.5 6.47l-0.25 5.64z" fill="rgba(153,122,96,1)"/>
 <path d="m17 101c0-5.57 1.29-5.49 5.25-2.25l2.75 2.25v5c-3.32-0.61-4-1.52-4-3.05 0-1.7-0.52-2.26-2-2.13z" fill="rgba(58,43,30,1)"/>
 <path d="m51 176c-1.1-6.23-1.02-8-0.52-8 1.11 0 2.48 2.06 2.5 3.75 0.01 0.76 1.39 1.25 3.52 1.25h3.5l-2 2h-1l-4 3z" fill="rgba(53,221,244,1)"/>
 <path d="m201 129v-12c4.72 0 4.49 7.83 1.75 10.37z" fill="rgba(58,142,193,1)"/>
 <path d="m229 114v-1l3 1c6.31 7.36 7.66 9.61 7.07 9.75l-1.07 0.25c-6.59-5.65-8.61-7.9-8.75-8.64z" fill="rgba(191,183,170,1)"/>
 <path d="m34 41-1-9v-7-2c1.8 10.62 2.1 10.78 3.3 5.25l0.7-3.25v7 1 5 2z" fill="rgba(153,122,96,1)"/>
 <path d="m26 30v-16l1.07 0.75c0.6 0.42 1.04 3.74 0.93 14.25-0.19 7.5-0.19 7.5-1.1 4.25z" fill="rgba(191,183,170,1)"/>
 <path d="m193 261c0-5.8 0.21-5.99 2.75-5.38 4.1 0.97 5.25 1.78 5.25 3.67v1.71z" fill="rgba(22,17,12,1)"/>
 <path d="m233 167c3.21-2.77 3.97-2.93 4.39-2.13l0.61 1.13c-6.07 13.54-7.38 13.89-5.88 5.75z" fill="rgba(114,89,68,1)"/>
 <path d="m213 187v2 1c-8.91 4.18-13.52 6.94-16 8.83-4.3 3.28-4.27 3.23 0.5-0.95 2.75-2.41 7.36-5.84 10.25-7.63z" fill="rgba(51,58,66,1)"/>
 <path d="m73 203 4-2c3.62 0 4 0.67 4 3.5v3.5c-2.89 1.55-4 0.92-4-1.22 0-1.29-0.84-2.54-2-3z" fill="rgba(221,188,114,1)"/>
 <path d="m257 198c1.16 0.71 1.61 4.09 1.75 7.96l0.25 7.04c-1.54-1.94-1.99-3.96-1.99-5.75-0.01-2.16-0.49-3.25-1.45-3.25-1.99 0-3.01-1.95-1.71-3.25 0.78-0.78 1.31-0.54 1.87 0.83 0.67 1.65 0.81 1.54 1.03-0.83z" fill="rgba(91,56,40,1)"/>
 <path d="m229 109v-2c0-7.69 0.47-9.24 1.54-9.65 2.15-0.83 2.46-0.27 2.46 4.48v4.17l-1.25 0.25c-0.69 0.14-1.59 0.81-2.75 2.75z" fill="rgba(175,147,117,1)"/>
 <path d="m17 89c1.84-1.39 3.08-1.5 3.94-1.15s1.9 0.08 2.31-0.61l0.75-1.24 1.19 0.28c0.67 0.16 0.86 0.82 0.44 1.5-0.41 0.67-0.27 1.22 1.37 1.22-0.73 1.16-1.96 1.5-3.22 1.5-1.29 0-2.17 0.54-2.03 1.25l0.25 1.25c-4.33 0-5-0.53-5-2z" fill="rgba(96,63,28,1)"/>
 <path d="m210 67c1.8 0.96 2.7 0.51 3.16-0.38l0.84-1.62h4c1.74 0.93 1.74 1.56 1.03 2.55l-1.03 1.45-1 4c-3.15-2.21-4.72-3.56-5.53-4.42z" fill="rgba(114,89,68,1)"/>
 <path d="m79 65c-2.79-2.42-2.07-3 1.75-3.06 2.06-0.03 4.76-0.48 6-1l2.25-0.94v1l-1.75 1.5c-1.61 1.37-1.44 1.5 5.75 1.5v1z" fill="rgba(170,114,48,1)"/>
 <path d="m121 52h2.17c2.29 0 2.83-0.25 2.83-1.33 0-0.37-1.12-0.67-5-0.67l3-1h8v4h-8z" fill="rgba(206,155,61,1)"/>
 <path d="m93 27c0.39-4.26 0.16-5.61-0.25-5.75l-0.75-0.25 1-7 0.25-1.45c0.17-1 0.64-1.16 2.75 0.45v7c-0.85 2.71-1.53 4.29-2.05 5.25z" fill="rgba(153,122,96,1)"/>
 <path d="m113 236v-1l2-2c1.94-0.44 3.29-1.11 4.25-1.78l1.75-1.22 1 3c-2.65 4-3.48 4.28-5.96 3.7z" fill="rgba(96,63,28,1)"/>
 <path d="m221 155-8-2v-1l4-3c4.04 0.4 5.33 1.26 5.57 2.25l0.43 1.75z" fill="rgba(58,43,30,1)"/>
 <path d="m241 54v-20c2.27 1.72 1.98 18.78 0.75 19.54z" fill="rgba(96,63,28,1)"/>
 <path d="m238 13 3-3h2c1.9 2.66 2.53 7.74 2.7 13.69l0.3 10.31c-2.28-20.37-2.54-21-5.8-21z" fill="rgba(175,147,117,1)"/>
 <path d="m198 5h3l1 9v2c-3.56 0-4.56-2.65-4.25-7.25z" fill="rgba(22,17,12,1)"/>
 <path d="m66 61-0.25-2.25c-0.48-4.32-1.22-5.27-4.75-2.75 0-3.18 0.64-3.32 4.5-2.71l4.5 0.71v2l-0.7 2.5c-0.39 1.38-1.29 2.5-3.3 2.5z" fill="rgba(206,155,61,1)"/>
 <path d="m183 195-1-1-1-2v-2l1-1 3-1 1 1h3c0 3.33-0.67 4-2 4h-2z" fill="rgba(114,89,68,1)"/>
 <path d="m131 238c-1.8 1.16-3.37 1.84-4.66 2.25l-2.34 0.75c-3.3-2.14-3.09-2.44 0.15-3.86 2.92-1.27 3.97-1.35 5.25-0.37z" fill="rgba(96,63,28,1)"/>
 <path d="m194 169 3-1c-0.39 1.94 0.1 2.75 0.84 3.05 1.1 0.44 1.05 1.04-0.25 3.25l-1.59 2.7h-1c-1.69 0-1.89-1.53-1.55-4z" fill="rgba(175,147,117,1)"/>
 <path d="m5 157v-8c3.14-0.45 3.56 0.37 3.81 3.75 0.27 3.72 0.05 4.25-1.75 4.25z" fill="rgba(114,89,68,1)"/>
 <path d="m37 101-3-1 1-3c5.19-1.46 7.45 3.4 5.14 5.14l-1.14 0.86z" fill="rgba(170,114,48,1)"/>
 <path d="m177 33v-8c4.05 0.75 4.38 1.42 4.21 4.41l-0.21 3.59z" fill="rgba(58,43,30,1)"/>
 <path d="m14 29-1-8c0.95-3.33 4 2.04 4 5.15v2.85z" fill="rgba(175,147,117,1)"/>
 <path d="m161 37v-4h8c0 3.33-0.67 4-2 4h-2z" fill="rgba(239,216,142,1)"/>
 <path d="m103 199 3-1 1-1c3.49 1.35 4.84 2.7 5.25 3.87l0.75 2.13c-2.11-1.5-3.12-1.62-3.59-1.22-0.48 0.4-2.12-0.07-3.64-1.03z" fill="rgba(114,89,68,1)"/>
 <path d="m257 84c0-6.33 0.38-7 2-7h2v8z" fill="rgba(22,17,12,1)"/>
 <path d="m194 64-1-3v-4h1 3l-0.88 0.77c-0.5 0.42-0.28 1.31 1.88 3.23-1.44 5.83-1.69 6.02-2.77 4.61z" fill="rgba(170,114,48,1)"/>
 <path d="m66 66v-1l1.25-1.04c0.92-0.76 0.65-0.9-3.25 0.04l-4-2 6-1c2.01 0 2.91-1.12 3.3-2.5l0.7-2.5 1 1c-1.29 5.81-2.41 7.84-3.33 8.25z" fill="rgba(58,43,30,1)"/>
 <path d="m25 106v-5h1c3.17 0 3.32 0.61 2.71 4l-0.71 4z" fill="rgba(170,114,48,1)"/>
 <path d="m59 62 1.74-0.96c2.59-1.44 2.78-3.21-1.74-4.04l2-1c3.53-2.52 4.27-1.57 4.75 2.75l0.25 2.25-6 1z" fill="rgba(221,188,114,1)"/>
 <path d="m89 20 2-8 2 2-1 7h-1z" fill="rgba(221,188,114,1)"/>
 <path d="m124 41h-2c-0.44-6.53-0.11-7.5 1-7.5s1.44 0.97 1.25 3.75z" fill="rgba(170,114,48,1)"/>
 <path d="m169 207c-0.85-1.59-1.62-1.73-2.26-1.34s-1.96-0.04-2.95-0.97l-1.79-1.69 6-2c0.39 1.93 1.14 3 1.93 3.61 1.05 0.83 1.12 1.29 0.25 1.76z" fill="rgba(114,107,99,1)"/>
 <path d="m44 197 1-1 4 4c0 3.01-0.48 4.18-1.07 4.54-1.27 0.79-1.17 0.92-2.71-3.79z" fill="rgba(96,63,28,1)"/>
 <path d="m32 128c3.1-2.53 4.03-2.86 4.07-2.38 0.03 0.48 0.48-0.36 1-1.87l0.93-2.75 1 1c-1.77 8.39-3.79 10.32-5.58 7.92z" fill="rgba(68,66,73,1)"/>
 <path d="m208 73-0.47-1.75c-0.31-1.18-0.63-1.34-1.53 0.75l-1-3c3.2 0 4 0.67 4 1.67 0 0.92 0.68 2.04 1.5 2.5l1.5 0.83-1.07 0.75c-0.59 0.41-1.04 1.76-0.93 5.25h-4c-0.39-1.94 0.12-2.37 0.88-2.21 1.96 0.42 2.54-0.48 1.78-2.79z" fill="rgba(170,114,48,1)"/>
 <path d="m245 67v-6c1.74 4.07 4.09 5.56 6.25 5.25l1.75-0.25c-0.78 4.25-3.47 4.4-6.25 2.31z" fill="rgba(178,165,147,1)"/>
 <path d="m175 5h6l-1 4h-3c-9.22-0.61-10.21-2-5-2 1.65 0 3-0.45 3-1z" fill="rgba(191,183,170,1)"/>
 <path d="m206 57 0.54-2c0.29-1.1 0.07-2-1.54-2v-3l5-1-0.99 0.86c-0.63 0.55-0.46 1.27 1.99 3.14l-1.07 0.75c-0.59 0.41-1.04 1.31-0.93 3.25z" fill="rgba(206,155,61,1)"/>
 <path d="m232 114-3-1v-4c1.16-1.94 2.06-2.61 2.75-2.75l1.25-0.25v2z" fill="rgba(142,137,124,1)"/>
 <path d="m153 40-2-3v-3h1l5 1c0 4.33-0.53 5-2 5z" fill="rgba(153,122,96,1)"/>
 <path d="m80 223c-7.73-10.19-6.39-11.31-1.6-6l3.6 4z" fill="rgba(114,89,68,1)"/>
 <path d="m17 208v-6l3-2c0 8.53-0.28 9.27-1.5 8.7z" fill="rgba(22,17,12,1)"/>
 <path d="m26 241c0-11.25 0.47-12.86 1.67-11.67 0.18 0.19 0.33 2.89 0.33 6v5.67z" fill="rgba(58,43,30,1)"/>
 <path d="m19 176-6-7 1-1 2 1c2.71 3.49 3.39 5.06 3.25 5.75z" fill="rgba(165,124,71,1)"/>
 <path d="m193 166 3-4 3 3-2 3-3 1c-1.44 0-1.67-0.67-1.43-1.5z" fill="rgba(68,66,73,1)"/>
 <path d="m227 113c-1.55-0.83-1.94-2.74-1.86-4.79 0.07-2.04 0.32-2.76 0.55-1.6 0.3 1.54 0.81 1.88 1.86 1.25l1.45-0.86v2 4 1z" fill="rgba(86,89,96,1)"/>
 <path d="m168 96c0-8.61 0.45-11 1.03-11 1.76 0 2.37 3.2 1.14 5.98-0.64 1.45-1.17 3.4-1.17 4.33v1.69z" fill="rgba(68,66,73,1)"/>
 <path d="m53 182v-4l4-3-0.36 2.25c-0.2 1.24-0.65 3.26-1.64 6.75z" fill="rgba(58,142,193,1)"/>
 <path d="m246 174 2-2c0.9 1.68 0.56 4.49-0.17 7.33-1.33 5.17-1.33 5.17-1.58-0.08z" fill="rgba(175,147,117,1)"/>
 <path d="m25 161v4c-2.9 1.55-4 0.92-3.98-1.25 0.02-3.35 1.6-5.5 2.92-3.97z" fill="rgba(165,124,71,1)"/>
 <path d="m246 167v-7-1c1.81-1.14 2.54 1.92 2.25 5.75l-0.25 3.25z" fill="rgba(175,147,117,1)"/>
 <path d="m57 61 1-4h1c4.52 0.83 4.33 2.6 1.74 4.04l-1.74 0.96z" fill="rgba(239,216,142,1)"/>
 <path d="m38 41h2l2 3v1l-1 2c-3.85 1.35-3.99 1.09-3.52-2.29z" fill="rgba(221,188,114,1)"/>
 <path d="m151 34-4-3v-2h1 1c2.71-0.01 3.61 0.67 3.75 1.49l0.25 1.51-1 2z" fill="rgba(239,216,142,1)"/>
 <path d="m148 29v-2.17c0-2.75-0.71-3.47-3-0.83v-5l1-4 2 3 1 9z" fill="rgba(114,89,68,1)"/>
 <path d="m55 184c0.99-3.49 1.44-5.51 1.64-6.75l0.36-2.25h1l1 9v1z" fill="rgba(63,114,165,1)"/>
 <path d="m243 102c-0.69-1.12-0.47-1.71 0.04-2.03 0.52-0.31 1.17-1.79 1.45-3.27l0.51-2.7 3 5z" fill="rgba(68,66,73,1)"/>
 <path d="m137 233c1.25-2.33 1.25-2.33-1.75-3.28l-2.25-0.72 8-3v7z" fill="rgba(114,89,68,1)"/>
 <path d="m150 198-1-8 1-8 1-1v11 5z" fill="rgba(68,66,73,1)"/>
 <path d="m186 181-1-10 3 3v2 4z" fill="rgba(51,58,66,1)"/>
 <path d="m63 140c0-6.79 1.25-7.84 2.55-5.73l0.45 0.73c0 5.06-0.41 5.74-1.5 5.43z" fill="rgba(68,66,73,1)"/>
 <path d="m205 53c1.61 0 1.83 0.9 1.54 2l-0.54 2h-1c-3.02 0-4.7-2.63-3.79-3.54 0.25-0.25 1.21-0.46 2.12-0.46z" fill="rgba(221,188,114,1)"/>
 <path d="m211 20c5.43 0 7-0.45 7-1s0.53-1 1.17-1 0.84 0.32 0.45 0.71c-0.39 0.4 1.56 1.07 4.33 1.5l5.05 0.79z" fill="rgba(142,137,124,1)"/>
 <path d="m118 24c0.1-9.34 0.16-9.42 1.66-7.27 0.95 1.36 1.32 3.2 0.95 4.75l-0.61 2.52z" fill="rgba(153,122,96,1)"/>
 <path d="m91 12c2.31-5.85 5-5.79 5-1.67v2.67c-2.11-1.61-2.58-1.45-2.75-0.45l-0.25 1.45z" fill="rgba(175,147,117,1)"/>
 <path d="m58 193h2l1 7c-2.67 1.43-3 0.76-3-3.33z" fill="rgba(114,89,68,1)"/>
 <path d="m105 194c0.7-1.94 1.09-3.17 1.32-4 0.82-3.01 2.07 0.18 1.38 3.54l-0.7 3.46-1 1z" fill="rgba(96,63,28,1)"/>
 <path d="m185 188v-1c1.94-1.16 3.74-1.61 5.25-1.75l2.75-0.25-3 4 0.66-1.25c0.52-1 0.12-1-4.66 1.25z" fill="rgba(58,43,30,1)"/>
 <path d="m31 173-1-3 1-2c1.01-1.16 1.69-0.94 2.15-0.25l0.85 1.25-1 4z" fill="rgba(68,66,73,1)"/>
 <path d="m85 83v-1c2.84-4.16 3.08-4.22 3.51-2.72l0.49 1.72c0 3.4-3.32 4.88-3.72 3.19z" fill="rgba(221,188,114,1)"/>
 <path d="m73 48-1-3 2-3 1.07 0.75c0.59 0.41 1.04 1.76 0.93 5.25z" fill="rgba(221,188,114,1)"/>
 <path d="m159 16 3-3c1.94 0.53 2.39 1.43 2.25 2.34l-0.25 1.66c-2.86 1.19-3.19 1.1-2.66 0.48 0.5-0.58 0.19-1.08-0.75-1.23z" fill="rgba(58,43,30,1)"/>
 <path d="m154 237c-0.8-5.09 0.07-7.94 1.5-6.02l1.5 2.02h1l-1 4z" fill="rgba(91,56,40,1)"/>
 <path d="m145 199c5.13 0 3.87 2.45 0.67 2.75l-2.67 0.25c-1.16-0.96-0.71-1.63 0.25-2.12z" fill="rgba(63,114,165,1)"/>
 <path d="m174 197v-2l6-5h1v2l-5 5z" fill="rgba(175,147,117,1)"/>
 <path d="m97 76c1.2-2.32 2.33-3 3.28-3h1.72l-1 4c-1.94 1.12-2.84 0.89-3.25 0.22z" fill="rgba(22,17,12,1)"/>
 <path d="m208 45-1-16h1l1 9z" fill="rgba(114,89,68,1)"/>
 <path d="m61.96 26.75c0.1-1.74 2.62-0.58 2.72 1.25 0.06 1.1 0.15 2.45 0.21 3s-0.79 1-1.89 1c-1.54 0-1.9-0.51-1.54-2.25 0.25-1.24 0.47-2.59 0.5-3" fill="rgba(153,122,96,1)"/>
 <path d="m160 9 2 4-3 3c-2.46 0-1.87-4.13-0.25-5.75z" fill="rgba(114,89,68,1)"/>
 <path d="m79 233c-1.66-2.18-1.08-2.59 1.3-2.84 2.32-0.24 3.27 0.1 3.45 1.25l0.25 1.59z" fill="rgba(22,17,12,1)"/>
 <path d="m181 167c1.14-12.6 1.59-15.75 1.73-15.13l0.27 1.13c0.11 9.69-0.34 12.84-0.93 13.25z" fill="rgba(153,122,96,1)"/>
 <path d="m210 80c-0.11-3.49 0.34-4.84 0.93-5.25l1.07-0.75 1 6z" fill="rgba(206,155,61,1)"/>
 <path d="m217 73 1-4c1.94 0.45 2.61 1.57 2.75 2.79l0.25 2.21h-1z" fill="rgba(206,155,61,1)"/>
 <path d="m57 69v-4-2l4 2v4z" fill="rgba(206,155,61,1)"/>
 <path d="m53 64c0-2.33 0.89-3 2-3h2v2 2l-1.21 0.92c-0.8 0.59-1.49 0.42-2.79-1.92z" fill="rgba(239,216,142,1)"/>
 <path d="m209 57c-0.11-1.94 0.34-2.84 0.93-3.25l1.07-0.75h1 1v4z" fill="rgba(96,63,28,1)"/>
 <path d="m113 55v2c-4.97 1.35-5.05 1.26-4.07-1.31 1.04-2.75 2.58-3.48 3.53-1.69z" fill="rgba(170,114,48,1)"/>
 <path d="m89 61v-1c-0.01-5.37 0.51-6.59 1.49-6.75l1.51-0.25h1v8h-1v-3.17c0-1.74-0.15-3.31-0.33-3.5-1.06-1.06-1.67 0.09-1.67 6.67z" fill="rgba(221,188,114,1)"/>
 <path d="m28 29c0.11-10.51-0.33-13.83-0.93-14.25l-1.07-0.75v-1c2.67 0 3 1.33 3 6v6 4z" fill="rgba(175,147,117,1)"/>
 <path d="m176 197 5-5 1 2-3 3h-2z" fill="rgba(114,107,99,1)"/>
 <path d="m77 185v-1c5.63 3.86 5.74 5 2.87 5-1.35 0-2.27-0.74-2.5-2z" fill="rgba(221,188,114,1)"/>
 <path d="m44 167-2-1-1-4c1.94-0.39 2.84 0.74 3.25 2.25l0.75 2.75z" fill="rgba(63,114,165,1)"/>
 <path d="m89 61h1 2 1v3c-7.19 0-7.36-0.13-5.75-1.5z" fill="rgba(206,155,61,1)"/>
 <path d="m251.12 33.5c-0.2-3.87-0.15-3.94 1.59-2.13 1.42 1.48 1.51 1.97 0.43 2.37-0.9 0.33-1 0.73-0.3 1.16 0.7 0.44 0.74 1.25 0.11 2.38-0.52 0.95-1.1 1.38-1.28 0.97-0.19-0.41-0.43-2.55-0.55-4.75" fill="rgba(91,56,40,1)"/>
 <path d="m170 233h2l1-1 4-2c0 2.63-6.48 6.2-6.75 4.55z" fill="rgba(58,43,30,1)"/>
 <path d="m208 209 2-3c2.21 1.34 2.18 1.93 1.11 3.5-1.04 1.51-1.59 1.69-2.24 0.75z" fill="rgba(22,17,12,1)"/>
 <path d="m53 69v-5c1.3 2.34 1.99 2.51 2.79 1.92l1.21-0.92v4z" fill="rgba(221,188,114,1)"/>
 <path d="m189 57h1 3v4c-3.33 0-4-0.67-4-2z" fill="rgba(22,17,12,1)"/>
 <path d="m124 53h8l-6 3z" fill="rgba(96,63,28,1)"/>
 <path d="m92 53c4.81-4.75 6.44-5.9 6.72-5.62 0.73 0.73-3.29 5.62-4.61 5.62h-1.11z" fill="rgba(114,89,68,1)"/>
 <path d="m161 37h4c-0.39 1.96 0.36 2.42 1.5 2.31 1.1-0.1 2.11 0.24 2.25 0.75l0.25 0.94c-2.71 0.21-4.51-0.69-5.75-1.86z" fill="rgba(165,124,71,1)"/>
 <path d="m158 229-1-3c0-1.44 0.68-1.67 1.5-1.43l1.5 0.43 1 1c0.01 1.94-0.67 2.61-1.49 2.75z" fill="rgba(170,114,48,1)"/>
 <path d="m102 229v-1l4-4h2l-3 4v1z" fill="rgba(170,114,48,1)"/>
 <path d="m147 216 1-2 4-2 1 2-1 2z" fill="rgba(68,66,73,1)"/>
 <path d="m193 209c0.39-2.71 1.29-3.61 2.25-3.75l1.75-0.25v3c-1.16 1.27-2.06 1.49-2.75 1.32z" fill="rgba(170,114,48,1)"/>
 <path d="m90 197-1-4c3.97 0 4.27 0.39 3.7 2l-0.7 2z" fill="rgba(206,155,61,1)"/>
 <path d="m256 173 1-9v2 7z" fill="rgba(96,63,28,1)"/>
 <path d="m34.44 149c1.55 0 2.56 1.14 2.56 2.9 0 0.61-0.9 1.1-2 1.1-1.33 0-2-0.67-2-2 0-1.1 0.65-2 1.44-2" fill="rgba(53,221,244,1)"/>
 <path d="m147 73h15v1z" fill="rgba(68,66,73,1)"/>
 <path d="m72 45 1 3c-3.61 1.27-4 0.97-4-0.8 0-1.29 0.62-2.2 1.5-2.2z" fill="rgba(239,216,142,1)"/>
 <path d="m114 41-1-4c3.33 0 4 0.67 4 2 0 1.1-0.45 2-1 2h-1z" fill="rgba(58,43,30,1)"/>
 <path d="m114 34c-1.15-4.31 0.58-6.79 1.94-5.22l1.06 1.22z" fill="rgba(175,147,117,1)"/>
 <path d="m41 41v-7-5-3z" fill="rgba(175,147,117,1)"/>
 <path d="m197 21c0 4.1 0.73 4.72 3.5 5.29l3.5 0.71c-7.41 0.49-7.49 0.42-7.25-2.75z" fill="rgba(114,89,68,1)"/>
 <path d="m133 5h4c0.57 2.71 0.8 3.61 0.87 3.74s-0.88 0.13-2.12 0c-1.26-0.14-2.36-1.01-2.5-1.99z" fill="rgba(153,122,96,1)"/>
 <path d="m157 237 1-4c1.94-0.01 2.61 0.67 2.75 1.49l0.25 1.51z" fill="rgba(170,114,48,1)"/>
 <path d="m117 216v-3h3v-4l1 5v2z" fill="rgba(114,89,68,1)"/>
 <path d="m113 209h-1c-3.56-1.74-3.44-4-1.37-4 0.9 0 1.8 0.9 2 2z" fill="rgba(22,17,12,1)"/>
 <path d="m151 197v-5c1.41 4.03 3.2 4.28 5.75 2.75l1.25-0.75-2 3z" fill="rgba(51,58,66,1)"/>
 <path d="m251.93 190c0.33 3.03 0.43 6.06 0.23 6.75-0.21 0.69-0.55 1.25-0.77 1.25-0.21 0-0.32-3.04-0.23-6.75 0.17-6.75 0.17-6.75 0.77-1.25" fill="rgba(91,56,40,1)"/>
 <path d="m50 181v-5h1l2 2v4z" fill="rgba(58,43,30,1)"/>
 <path d="m216 160c0-1.64-0.48-1.82-1.07-1.46-0.58 0.36-1.37 0.34-1.75-0.06-0.78-0.82 3.7-2.98 5.57-2.68l1.25 0.2c-1.9 1.16-2.8 2.06-3.22 2.75z" fill="rgba(58,43,30,1)"/>
 <path d="m25 74c1.16-1.59 1.84-2.71 2.25-3.52l0.75-1.48c3.26 0 1.53 4.5-0.75 4.75z" fill="rgba(165,124,71,1)"/>
 <path d="m61 69v-4h2 3v1z" fill="rgba(96,63,28,1)"/>
 <path d="m197 57 3 1-2 3c-2.16-1.92-2.38-2.81-1.88-3.23z" fill="rgba(206,155,61,1)"/>
 <path d="m90 61c0-6.58 0.61-7.73 1.67-6.67 0.18 0.19 0.33 1.76 0.33 3.5v3.17z" fill="rgba(239,216,142,1)"/>
 <path d="m124 49 1-3 3 1 4 2z" fill="rgba(114,89,68,1)"/>
 <path d="m195 41c5.16-2.08 5.28-2.33 3.75-3.11l-1.75-0.89c3.33 0 4 0.67 4 2v2h-4z" fill="rgba(239,216,142,1)"/>
 <path d="m37 32v-7-7z" fill="rgba(91,56,40,1)"/>
 <path d="m65 206 1 1 2 6c-2.92-1.25-3.42-2.42-3.25-4.25z" fill="rgba(58,43,30,1)"/>
 <path d="m184 155h1v11z" fill="rgba(153,122,96,1)"/>
 <path d="m185 152v-13z" fill="rgba(58,43,30,1)"/>
 <path d="m41 129v-4c2.71 0.39 3.61 1.29 3.75 2.25l0.25 1.75z" fill="rgba(58,142,193,1)"/>
 <path d="m23 79c1.16 0.13 2.74 0.35 4.25 0.58l2.75 0.42c-2.83 2.27-3.47 2.18-5.06 0.75z" fill="rgba(170,114,48,1)"/>
 <path d="m218 58v-6c1.26-2.05 2-0.37 2 2.83v3.17z" fill="rgba(58,43,30,1)"/>
 <path d="m211 53c-2.45-1.87-2.62-2.59-1.99-3.14l0.99-0.86h3v1l-1 3z" fill="rgba(221,188,114,1)"/>
 <path d="m202 41c1.94-0.01 2.61 0.67 2.75 1.49l0.25 1.51c-2.92 0.42-3.42-0.08-3.25-1.25z" fill="rgba(221,188,114,1)"/>
 <path d="m118 27-1-2 1-1h2l1 5z" fill="rgba(114,89,68,1)"/>
 <path d="m64 241h4v3h-4z" fill="rgba(58,43,30,1)"/>
 <path d="m238 230h2v6h-2z" fill="rgba(58,43,30,1)"/>
 <path d="m59.07 229.67c0.51 0.51 0.93 1.25 0.93 1.63 0 0.39-0.9 0.7-2 0.7s-2.24-0.46-2.54-1.01c-0.73-1.36 2.42-2.51 3.61-1.32" fill="rgba(91,56,40,1)"/>
 <path d="m137 213v-3h2l2 1-1 2z" fill="rgba(170,114,48,1)"/>
 <path d="m197 205c0-1.89 0.9-2.79 2-3.22l2-0.78c-0.39 2.71-1.29 3.61-2.25 3.75z" fill="rgba(170,114,48,1)"/>
 <path d="m201 201c0.39-1.94 1.29-2.84 2.25-3.25l1.75-0.75c-0.39 1.94-1.29 2.84-2.25 3.25z" fill="rgba(170,114,48,1)"/>
 <path d="m17 202v-4c2.21-2.55 3-1.95 3 0.33v1.67z" fill="rgba(58,43,30,1)"/>
 <path d="m174 195v-2l4-4 2 1z" fill="rgba(178,165,147,1)"/>
 <path d="m34 193c-0.5-3.46 1.63-4.22 2.54-2.75l0.46 0.75z" fill="rgba(96,63,28,1)"/>
 <path d="m182 189-1-2 3-2h1v2 1z" fill="rgba(175,147,117,1)"/>
 <path d="m193 185 1-2 2-2c0.39 2.67-0.26 3.53-1.25 3.7z" fill="rgba(58,43,30,1)"/>
 <path d="m181 138h1v12h-1z" fill="rgba(153,122,96,1)"/>
 <path d="m43.73 108.6c0.4-0.4 0.92-0.13 1.15 0.59 0.24 0.72 1.26 1.63 2.27 2.03 1.02 0.39 1.85 0.96 1.85 1.25s-0.45 0.53-1 0.53-1.9-0.32-3-0.7c-2.03-0.71-2.6-2.37-1.27-3.7" fill="rgba(51,58,66,1)"/>
 <path d="m24 86-3-3 7 4-1 2c-1.64 0-1.78-0.55-1.37-1.22 0.42-0.68 0.23-1.34-0.44-1.5z" fill="rgba(170,114,48,1)"/>
 <path d="m33 76c0.8-4.37 4.18-4.49 4.71-2.24l0.29 1.24c-1.94-0.39-3.06-0.16-3.75 0.25z" fill="rgba(165,124,71,1)"/>
 <path d="m177 36v-3h4v2 3z" fill="rgba(114,89,68,1)"/>
 <path d="m145 26c2.29-2.64 3-1.92 3 0.83v2.17h-1z" fill="rgba(22,17,12,1)"/>
 <path d="m144 28 1-7v5l2 3v2z" fill="rgba(153,122,96,1)"/>
 <path d="m170 233v-4l3-2v2l-1 4z" fill="rgba(170,114,48,1)"/>
 <path d="m105 228 3-4v-2l1-1v3c-0.39 2.71-1.29 3.61-2.25 3.75z" fill="rgba(96,63,28,1)"/>
 <path d="m31 173h2c-2.02 1.76-2.02 2.24-1.15 3l1.15 1c-4.06 0-4.53-2.46-2.75-3.54z" fill="rgba(221,188,114,1)"/>
 <path d="m36 172.5c0-0.27 0.9-0.5 2-0.5 2.06 0 2.7 1.45 1.1 2.44-0.5 0.31-1.4 0.56-2 0.56-0.61 0-1.1-0.45-1.1-1v-1.5" fill="rgba(221,188,114,1)"/>
 <path d="m136 116 1-8v11z" fill="rgba(96,63,28,1)"/>
 <path d="m54 77c1.94-1.08 2.84-1.76 3.25-2.2l0.75-0.8c3.75 0.95 2.01 2.28-1.25 2.75l-1.75 0.25z" fill="rgba(96,63,28,1)"/>
 <path d="m77 44-1-3 3-3 1 3z" fill="rgba(153,122,96,1)"/>
 <path d="m80 41-1-3 2-3h1l-1 7z" fill="rgba(165,124,71,1)"/>
 <path d="m223 28c2.57-1.94 4.14-2.39 5.16-2.25l1.84 0.25c-0.39 0.36-1.96 0.81-3.75 1.23z" fill="rgba(58,43,30,1)"/>
 <path d="m100 12 1 11z" fill="rgba(114,89,68,1)"/>
 <path d="m166 237 3 2c-2.21 2.55-3 1.95-3-0.33z" fill="rgba(170,114,48,1)"/>
 <path d="m173 224 2-3c2.62 2.27 0.82 4.51-0.89 3.59z" fill="rgba(170,114,48,1)"/>
 <path d="m122 171 1-1h2l-3 6z" fill="rgba(91,56,40,1)"/>
 <path d="m246 174v-7l2 1v4z" fill="rgba(153,122,96,1)"/>
 <path d="m188 176v-2l1-8z" fill="rgba(58,43,30,1)"/>
 <path d="m83 110h10v1h-10z" fill="rgba(51,58,66,1)"/>
 <path d="m162 85v-1h1l2 1v5z" fill="rgba(165,124,71,1)"/>
 <path d="m53 87h-4c-0.58-2.87 3.32-2.88 3.7-1.25z" fill="rgba(96,63,28,1)"/>
 <path d="m219 77-2-4 3 1c1.44 1.25 1.67 1.92 1.43 2.31l-0.43 0.69z" fill="rgba(96,63,28,1)"/>
 <path d="m61 65-2-1v-2h1l4 2-1 1z" fill="rgba(114,89,68,1)"/>
 <path d="m233 71v-10z" fill="rgba(175,147,117,1)"/>
 <path d="m190 57c0-2.32 0.55-3 1.22-3 0.68 0 1.58 0.68 2 1.5l0.78 1.5h-1z" fill="rgba(96,63,28,1)"/>
 <path d="m121 52v-2c3.88 0 5 0.3 5 0.67 0 1.08-0.54 1.33-2.83 1.33z" fill="rgba(221,188,114,1)"/>
 <path d="m152 34 1-2 4 1v2z" fill="rgba(165,124,71,1)"/>
 <path d="m131 29 5 2-2 2z" fill="rgba(165,124,71,1)"/>
 <path d="m180 9 1-4h3z" fill="rgba(178,165,147,1)"/>
 <path d="m170 229v-1c-0.01-1.94 0.67-2.61 1.49-2.75l1.51-0.25v2z" fill="rgba(206,155,61,1)"/>
 <path d="m179 183v4l-1 1c-0.39-1.19-0.16-2.31 0.25-3.27z" fill="rgba(58,142,193,1)"/>
 <path d="m151 181-1 1c-0.94-0.58-0.62-1.82 0.1-3.12 1.18-2.15 1.35-2.19 1.7-0.5 0.22 1.03 0.13 2.05-0.2 2.25z" fill="rgba(58,43,30,1)"/>
 <path d="m34 110 2 3c-2.86 0-3.18-0.48-2.7-1.5z" fill="rgba(206,155,61,1)"/>
 <path d="m191 104c2.08-2.25 2.48-2.25 3.16-1.25l0.84 1.25z" fill="rgba(114,89,68,1)"/>
 <path d="m33 100h1l3 1v2z" fill="rgba(114,89,68,1)"/>
 <path d="m54 93c2.86 0 3.18 0.48 2.7 1.5l-0.7 1.5z" fill="rgba(221,188,114,1)"/>
 <path d="m60.69 89.84c0.29 0.73 0.12 1.75-0.38 2.25s-1.22 0.91-1.61 0.91c-0.38 0-0.69-0.34-0.68-0.75 0.03-1.87 2.13-3.76 2.67-2.41" fill="rgba(96,63,28,1)"/>
 <path d="m76 48c0.11-3.49-0.34-4.84-0.93-5.25l-1.07-0.75 2-1 1 3z" fill="rgba(165,124,71,1)"/>
 <path d="m33 41v-3-6l1 9z" fill="rgba(114,89,68,1)"/>
 <path d="m136 217 1-2v-2h3z" fill="rgba(58,43,30,1)"/>
 <path d="m165 211c0-2.33 0.89-3 2-3h2l2 1c-2.71-0.06-4.06 0.39-4.75 0.96z" fill="rgba(51,58,66,1)"/>
 <path d="m82 197c3.68-1.29 4-0.97 4 1.3v2.7c-1.16-2.71-2.06-3.61-2.75-3.75z" fill="rgba(114,89,68,1)"/>
 <path d="m179 197 3-3 1 1v2z" fill="rgba(68,66,73,1)"/>
 <path d="m178 169-1 2c-0.65-0.84 0.78-6 1.4-6 0.37 0 0.43 0.9 0.14 2z" fill="rgba(114,107,99,1)"/>
 <path d="m68 145 1-4c1.16 0.74 1.39 1.64 1.25 2.47l-0.25 1.53z" fill="rgba(114,107,99,1)"/>
 <path d="m26 145v-4h2v4z" fill="rgba(175,147,117,1)"/>
 <path d="m26 141c0-4.33 1.38-4.73 1.75-2.51l0.25 1.51v1z" fill="rgba(221,188,114,1)"/>
 <path d="m54 118 2-1c1.94 0.52 2.15 1.06 1.73 1.53-0.43 0.47-1.44 0.54-2.25 0.16z" fill="rgba(86,89,96,1)"/>
 <path d="m47.8 101.89c0.22 0.68 0.21 1.43-0.03 1.67s-0.96 0.44-1.6 0.44-1.17-0.42-1.17-0.94c0-1.54 2.35-2.52 2.8-1.17" fill="rgba(170,114,48,1)"/>
 <path d="m49 87h4c-1.67 2.21-2.08 2.21-2.93 1.23z" fill="rgba(170,114,48,1)"/>
 <path d="m93 65v-1-3c3.13 1.62 3.23 2.05 2.25 2.91l-1.25 1.09z" fill="rgba(96,63,28,1)"/>
 <path d="m155 226h2l1 3-1 1z" fill="rgba(91,56,40,1)"/>
 <path d="m118 210 2-1v4z" fill="rgba(22,17,12,1)"/>
 <path d="m188.1 205.7c0.7 0.7 0.73 1.29 0.08 1.69-0.54 0.33-1.26 0.61-1.58 0.61-0.33 0-0.6-0.52-0.6-1.17 0-1.81 0.93-2.3 2.1-1.13" fill="rgba(91,56,40,1)"/>
 <path d="m171 197 3-4v2 2z" fill="rgba(142,137,124,1)"/>
 <path d="m180 190-2-1v-1l1-1h2l1 2-1 1z" fill="rgba(142,137,124,1)"/>
 <path d="m49 176h1v5 2z" fill="rgba(114,89,68,1)"/>
 <path d="m179 175v-1c2.11-1.83 2.58-1.76 2.9-0.82 0.24 0.73-0.31 1.43-1.23 1.57z" fill="rgba(63,114,165,1)"/>
 <path d="m195 153-1 2c-0.96 0.39-1.29-0.17-1.37-1-0.07-0.82 0.43-1.39 1.12-1.25z" fill="rgba(114,107,99,1)"/>
 <path d="m72 154v1c-3.17-2.51-3.81-3.52-3.47-3.86 0.34-0.35 1.26 0.16 2.05 1.12z" fill="rgba(114,107,99,1)"/>
 <path d="m256 143c1.87 0 2.07 0.77 1.66 2l-0.66 2z" fill="rgba(91,56,40,1)"/>
 <path d="m206 80h4 3l-1 1z" fill="rgba(96,63,28,1)"/>
 <path d="m91 74h1c-1.08 4.7-1.38 5.01-1.69 3.8-0.24-0.93-0.18-2.17 0.13-2.75z" fill="rgba(170,114,48,1)"/>
 <path d="m201 69c1.44-1.25 1.67-1.92 1.43-2.31l-0.43-0.69 3 3z" fill="rgba(96,63,28,1)"/>
 <path d="m218 61v-3h2c0.39 1.8-0.06 2.48-0.75 2.66z" fill="rgba(22,17,12,1)"/>
 <path d="m206 58 3 4z" fill="rgba(96,63,28,1)"/>
 <path d="m246 56c0.97-2.25 1.27-2.25 2.04-1.25l0.96 1.25z" fill="rgba(142,137,124,1)"/>
 <path d="m59.5 51c0.85 0.71 1.39 1.45 1.19 1.64-0.2 0.2-0.88 0.36-1.52 0.36s-1.32-0.56-1.51-1.25c-0.51-1.91 0.13-2.17 1.84-0.75" fill="rgba(153,122,96,1)"/>
 <path d="m31 44 2-6v3z" fill="rgba(91,56,40,1)"/>
 <path d="m205.53 36.05c0.37 0.6 0.48 1.28 0.24 1.52-0.24 0.23-0.96 0.43-1.6 0.43s-1.17-0.42-1.17-0.94c0-1.49 1.79-2.2 2.53-1.01" fill="rgba(114,89,68,1)"/>
 <path d="m248 34v-5-1c1.04 0.65 1.04 2 0.67 3.42z" fill="rgba(91,56,40,1)"/>
 <path d="m193 28v-6z" fill="rgba(58,43,30,1)"/>
 <path d="m105 225-3 3c-1.59-2.2-0.79-3 1.33-3z" fill="rgba(96,63,28,1)"/>
 <path d="m234.06 222.15c1.21-0.41 2.53 0.6 1.77 1.35-0.27 0.28-1.02 0.5-1.66 0.5s-1.17-0.34-1.17-0.75 0.48-0.91 1.06-1.1" fill="rgba(58,43,30,1)"/>
 <path d="m258.21 215.81c0.67 0.67 0.89 1.66 0.5 2.2-0.39 0.55-0.93 0.65-1.19 0.24-1.12-1.72-0.55-3.68 0.69-2.44" fill="rgba(91,56,40,1)"/>
 <path d="m196 215v2h-2c-1.16-0.99-0.71-1.44 0.25-1.64z" fill="rgba(170,114,48,1)"/>
 <path d="m117 213 1-3 2 3z" fill="rgba(58,43,30,1)"/>
 <path d="m186 189c4.78-2.25 5.18-2.25 4.66-1.25l-0.66 1.25h-1z" fill="rgba(68,66,73,1)"/>
 <path d="m252 179h1c-0.35 6.5-0.35 6.5-0.67 3.25z" fill="rgba(91,56,40,1)"/>
 <path d="m108 179-2 1c-1.39-3.18-1.25-3.25 0.25-2.22z" fill="rgba(91,56,40,1)"/>
 <path d="m42 168 2-1h1v4z" fill="rgba(153,122,96,1)"/>
 <path d="m26 168c2.25-2.25 2.57-2.2 2.87-1.01 0.2 0.81-0.14 1.6-0.75 1.75l-1.12 0.26z" fill="rgba(22,17,12,1)"/>
 <path d="m213 163c-0.01-1.94 0.67-2.61 1.49-2.75l1.51-0.25z" fill="rgba(58,43,30,1)"/>
 <path d="m257 156v2 3 1z" fill="rgba(96,63,28,1)"/>
 <path d="m54 124c1.16-0.73 1.61-0.28 1.75 0.53l0.25 1.47z" fill="rgba(86,89,96,1)"/>
 <path d="m36 113-2-3c2.36-1.7 3.51-0.22 2.69 1.52z" fill="rgba(170,114,48,1)"/>
 <path d="m35 97-1 3h-1c-1.16-0.96-0.71-1.63 0.25-2.12z" fill="rgba(96,63,28,1)"/>
 <path d="m48 92 3 1h2c-0.89 1.16-2.02 0.94-3.08 0.25z" fill="rgba(96,63,28,1)"/>
 <path d="m51 93c1.44-3.42 1.51-3.42 2.24-1.75l0.76 1.75h-1z" fill="rgba(22,17,12,1)"/>
 <path d="m7.37 89c1.07 0 1.13 0.42 0.25 1.97-0.62 1.09-1.23 1.99-1.37 2-0.14 0.02-0.25-0.87-0.25-1.97s0.62-2 1.37-2" fill="rgba(191,183,170,1)"/>
 <path d="m163 84 2-2v3z" fill="rgba(221,188,114,1)"/>
 <path d="m206 72c0.9-2.09 1.22-1.93 1.53-0.75l0.47 1.75z" fill="rgba(206,155,61,1)"/>
 <path d="m63 65 1-1c3.9-0.94 4.17-0.8 3.25-0.04l-1.25 1.04z" fill="rgba(91,56,40,1)"/>
 <path d="m212 53 1-3 3 3h-3z" fill="rgba(165,124,71,1)"/>
 <path d="m42 45v-1l3-2c0.01 1.94-0.67 2.61-1.49 2.75z" fill="rgba(244,244,209,1)"/>
 <path d="m37 38v-5z" fill="rgba(91,56,40,1)"/>
 <path d="m170 228v1 4z" fill="rgba(96,63,28,1)"/>
 <path d="m135 213 2-3v3z" fill="rgba(114,107,99,1)"/>
 <path d="m86 208c1.02-2.25 1.22-2.25 1.56-1.25l0.44 1.25z" fill="rgba(114,89,68,1)"/>
 <path d="m183 197v-2l2-2z" fill="rgba(58,43,30,1)"/>
 <path d="m75 181h1l1 3v1z" fill="rgba(239,216,142,1)"/>
 <path d="m158 177 3 2-1 1z" fill="rgba(58,43,30,1)"/>
 <path d="m14 168-1 1c-1.5 0-1.66-0.73-1.31-1.62 0.43-1.14 0.87-1.29 1.46-0.5z" fill="rgba(91,56,40,1)"/>
 <path d="m257 166v-2-2-1z" fill="rgba(58,43,30,1)"/>
 <path d="m28 145v-4-1h1z" fill="rgba(114,107,99,1)"/>
 <path d="m81.18 132.78c0.65 0.65 0.95 1.42 0.67 1.7-0.28 0.29-0.82 0.52-1.18 0.52-0.37 0-0.67-0.76-0.67-1.7 0-1.31 0.27-1.43 1.18-0.52" fill="rgba(91,56,40,1)"/>
 <path d="m103 117v-1h5z" fill="rgba(58,43,30,1)"/>
 <path d="m98 117 5-1v1z" fill="rgba(91,56,40,1)"/>
 <path d="m46 74v-1h2c-0.99 2.87-1.35 3.05-1.6 2.25z" fill="rgba(221,188,114,1)"/>
 <path d="m190.09 66.15c1.11-0.39 1.91 0.11 1.91 1.18 0 0.37-0.45 0.67-1 0.67s-1.21-0.34-1.47-0.75 0-0.91 0.56-1.1" fill="rgba(22,17,12,1)"/>
 <path d="m71 57-1-1v-2l2 2v1z" fill="rgba(170,114,48,1)"/>
 <path d="m72 56-2-2 3-1z" fill="rgba(96,63,28,1)"/>
 <path d="m97 32h3v1c-1.01 1.16-1.69 0.94-2.15 0.25z" fill="rgba(114,89,68,1)"/>
 <path d="m247 34 1-5v5z" fill="rgba(175,147,117,1)"/>
 <path d="m40 29h1v5z" fill="rgba(91,56,40,1)"/>
 <path d="m205 28 1 1c-0.29 4.01-0.4 3.9-0.66 1.75z" fill="rgba(114,89,68,1)"/>
 <path d="m237 29v-4-1z" fill="rgba(58,43,30,1)"/>
 <path d="m40 29 1-5v2 3z" fill="rgba(114,89,68,1)"/>
 <path d="m197 21 2-2 2 1z" fill="rgba(114,89,68,1)"/>
 <path d="m202 16v-2l2 2z" fill="rgba(114,89,68,1)"/>
 <path d="m33 16v-2c3.45 0 3.45 1.42 1.5 1.75z" fill="rgba(175,147,117,1)"/>
 <path d="m240 5h1v5z" fill="rgba(153,122,96,1)"/>
 <path d="m53 10v-5h1z" fill="rgba(114,89,68,1)"/>
 <path d="m172 233 1-4v3z" fill="rgba(96,63,28,1)"/>
 <path d="m106 224 2-2v2z" fill="rgba(206,155,61,1)"/>
 <path d="m135 213h2v2z" fill="rgba(206,155,61,1)"/>
 <path d="m252 179c0.3-4.5 0.3-4.5 0.65-2.25l0.35 2.25z" fill="rgba(96,63,28,1)"/>
 <path d="m42 168v-2l2 1z" fill="rgba(58,43,30,1)"/>
 <path d="m195 153 1-4z" fill="rgba(114,107,99,1)"/>
 <path d="m37 103v-2l2 2z" fill="rgba(96,63,28,1)"/>
 <path d="m161 85v-4l1 3v1z" fill="rgba(221,188,114,1)"/>
 <path d="m85 79v3 1z" fill="rgba(165,124,71,1)"/>
 <path d="m257 65v-4h1z" fill="rgba(114,107,99,1)"/>
 <path d="m57 63v-2l2 1v2z" fill="rgba(96,63,28,1)"/>
 <path d="m5 41v-1l4 1z" fill="rgba(153,122,96,1)"/>
 <path d="m36 9v-4h1v4z" fill="rgba(153,122,96,1)"/>
</svg>
